<?xml version="1.0" encoding="UTF-8" standalone="no"?>
<!-- Created with Inkscape (http://www.inkscape.org/) -->

<svg
   width="210mm"
   height="210mm"
   viewBox="0 0 210 210"
   version="1.1"
   id="svg1"
   xml:space="preserve"
   inkscape:version="1.4.3 (0d15f75, 2025-12-25)"
   sodipodi:docname="logo.svg"
   xmlns:inkscape="http://www.inkscape.org/namespaces/inkscape"
   xmlns:sodipodi="http://sodipodi.sourceforge.net/DTD/sodipodi-0.dtd"
   xmlns="http://www.w3.org/2000/svg"
   xmlns:svg="http://www.w3.org/2000/svg"><sodipodi:namedview
     id="namedview1"
     pagecolor="#ffffff"
     bordercolor="#000000"
     borderopacity="0.25"
     inkscape:showpageshadow="2"
     inkscape:pageopacity="0.0"
     inkscape:pagecheckerboard="0"
     inkscape:deskcolor="#d1d1d1"
     inkscape:document-units="mm"
     inkscape:zoom="0.68862935"
     inkscape:cx="243.2368"
     inkscape:cy="365.21824"
     inkscape:window-width="1920"
     inkscape:window-height="991"
     inkscape:window-x="-9"
     inkscape:window-y="-9"
     inkscape:window-maximized="1"
     inkscape:current-layer="layer1" /><defs
     id="defs1" /><g
     inkscape:label="Слой 1"
     inkscape:groupmode="layer"
     id="layer1"><path
       d="m 27.842275,45.006947 -0.160013,0.07263 -0.161004,0.06993 -0.156606,0.0818 -0.156606,0.08179 -0.156594,0.08179 -0.154778,0.0868 -0.15478,0.08681 -0.156594,0.0818 -0.156606,0.08179 -0.156606,0.08179 -0.159027,0.07522 -0.158371,0.07708 -0.158385,0.07708 -0.161002,0.06992 -0.160013,0.07263 -0.161004,0.06992 -0.162468,0.06592 -0.16199,0.06722 -0.16446,0.06049 -0.16446,0.06049 -0.164445,0.06049 -0.16446,0.06049 -0.164459,0.06049 -0.16446,0.06049 -0.164458,0.06049 -0.16247,0.06593 -0.162484,0.06592 -0.155075,0.07078 -0.147513,0.07107 -0.135233,0.07393 -0.130284,0.07221 -0.123578,0.07536 -0.110209,0.07608 -0.09968,0.07408 -0.08704,0.07321 -0.07966,0.07793 -0.06973,0.07422 -0.05641,0.07478 -0.04734,0.08466 -0.03456,0.08365 -0.02221,0.08668 -0.01315,0.09624 -0.002,0.0959 0.007,0.100101 0.01556,0.108101 0.02459,0.112396 0.03444,0.114254 0.04297,0.116685 0.0515,0.11926 0.0578,0.128126 0.06735,0.132129 0.07399,0.135275 0.08138,0.139994 0.08756,0.141424 0.09656,0.145587 0.103326,0.148702 0.108163,0.146915 0.11314,0.145114 0.113125,0.145084 0.113125,0.1451 0.108164,0.146929 0.108161,0.146915 0.108163,0.14693 0.103327,0.148703 0.09836,0.150532 0.09179,0.152936 0.0934,0.152364 0.08683,0.154779 0.08187,0.15661 0.08187,0.156597 0.07529,0.159012 0.0726,0.160015 0.06993,0.160999 0.0726,0.160015 0.06991,0.161 0.06991,0.161001 0.0726,0.160012 0.06589,0.162489 0.06589,0.162473 0.06723,0.161974 0.06993,0.161013 0.06993,0.161 0.0726,0.160015 0.06992,0.160986 0.0726,0.160013 0.07704,0.158383 0.07529,0.159014 0.07703,0.158398 0.07704,0.158369 0.08025,0.157197 0.08187,0.156611 0.08683,0.154766 0.08844,0.154193 0.09179,0.152949 0.09179,0.152951 0.09836,0.150518 0.09675,0.15112 0.103327,0.148701 0.103327,0.148705 0.103326,0.148716 0.108163,0.1469 0.108162,0.14693 0.108164,0.14693 0.108163,0.146928 0.103327,0.148691 0.108163,0.146929 0.108162,0.146929 0.108163,0.146915 0.113125,0.1451 0.113125,0.145084 0.119703,0.142711 0.113125,0.145099 0.119703,0.142711 0.123063,0.141425 0.124665,0.140852 0.124665,0.140852 0.124664,0.140852 0.123064,0.141424 0.129641,0.138992 0.129642,0.138995 0.129641,0.138992 0.129627,0.138995 0.129641,0.138992 0.12964,0.138994 0.129642,0.138993 0.129627,0.138993 0.129641,0.138993 0.129642,0.138993 0.123063,0.141424 0.124679,0.140852 0.129627,0.138995 0.129641,0.138991 0.13446,0.137278 0.134475,0.137278 0.141038,0.134844 0.139436,0.13542 0.134475,0.137276 0.14118,0.134705 0.139437,0.135417 0.13446,0.137279 0.13446,0.137276 0.129642,0.138993 0.129626,0.138993 0.12468,0.140852 0.118101,0.143283 0.119703,0.142711 0.123063,0.141424 0.124665,0.140852 0.129641,0.138994 0.129641,0.138993 0.13446,0.137278 0.129626,0.138992 0.129641,0.138994 0.12468,0.140852 0.124666,0.140852 0.118086,0.143254 0.118102,0.143269 0.119702,0.14271 0.118101,0.14327 0.119702,0.142711 0.118088,0.143254 0.114741,0.144513 0.108167,0.146916 0.103327,0.148716 0.10158,0.149333 0.103327,0.148702 0.103326,0.148703 0.103327,0.148688 0.103348,0.148718 0.10159,0.149331 0.103326,0.148704 0.108167,0.146928 0.108167,0.146916 0.108167,0.146928 0.114742,0.144501 0.113124,0.145098 0.113126,0.145084 0.108167,0.14693 0.103327,0.148703 0.09676,0.151134 0.0934,0.15235 0.08683,0.154765 0.08683,0.15478 0.08187,0.15661 0.08187,0.15661 0.08186,0.156597 0.07529,0.159027 0.07704,0.158383 0.06589,0.162473 0.06725,0.162001 0.06589,0.162461 0.06053,0.16446 0.06053,0.164461 0.06053,0.164461 0.05515,0.16642 0.05381,0.166934 0.05114,0.167908 0.04845,0.168894 0.04578,0.16991 0.03918,0.172296 0.03422,0.174142 0.02583,0.171606 0.01509,0.16811 0.0093,0.17213 2.58e-4,0.16796 -0.0099,0.16609 -0.01646,0.16851 -0.02485,0.16601 -0.02986,0.16228 -0.03644,0.16472 -0.04221,0.15939 -0.05062,0.15682 -0.0572,0.15926 -0.06225,0.15548 -0.06398,0.15611 -0.06904,0.15233 -0.07562,0.15476 -0.07804,0.14817 -0.08396,0.15235 -0.08483,0.14504 -0.08974,0.147 -0.09572,0.15103 -0.09633,0.14942 -0.09456,0.14878 -0.100618,0.15283 -0.101259,0.15109 -0.101198,0.15122 -0.106138,0.15304 -0.105543,0.15463 -0.106172,0.15291 -0.106194,0.15289 -0.105532,0.15466 -0.09943,0.15605 -0.097,0.16261 -0.09211,0.16083 -0.08854,0.16516 -0.0835,0.16893 -0.0819,0.16835 -0.07508,0.17146 -0.06771,0.17623 -0.06771,0.17623 -0.06095,0.17928 -0.05913,0.18422 -0.05753,0.18363 -0.05249,0.18736 -0.05248,0.18737 -0.04832,0.19331 -0.05067,0.19231 -0.0465,0.19824 -0.04154,0.19642 -0.03489,0.19957 -0.02993,0.19775 -0.02496,0.19592 -0.01839,0.19347 -0.01999,0.19411 -0.01839,0.19349 -0.01344,0.19167 -0.01344,0.19166 -0.01516,0.19232 -0.01839,0.1935 -0.01344,0.19168 -0.01839,0.19348 -0.01518,0.19231 -0.01839,0.1935 -0.01344,0.19167 -0.01344,0.19168 -0.0086,0.18987 -0.0086,0.1899 -0.0036,0.18807 -0.0036,0.18804 -0.002,0.1875 0.0013,0.18622 0.003,0.18564 0.0013,0.18624 0.0079,0.18381 0.0079,0.18382 0.01286,0.18199 0.01287,0.182 0.01287,0.18197 0.01286,0.182 0.01287,0.18199 0.01286,0.18199 0.0063,0.18441 0.0079,0.18381 0.0079,0.18381 0.0063,0.18442 0.01287,0.18199 0.01286,0.18198 0.01286,0.18199 0.01288,0.182 0.01946,0.17956 0.01772,0.18022 0.02269,0.17837 0.02429,0.17779 0.02764,0.17656 0.02926,0.17597 0.02926,0.17596 0.02765,0.17656 0.02926,0.17596 0.02269,0.17837 0.02429,0.1778 0.02269,0.17838 0.01773,0.18022 0.01772,0.18022 0.01945,0.17954 0.01772,0.18022 0.01286,0.18199 0.01286,0.182 0.01771,0.1802 0.01773,0.18021 0.02429,0.1778 0.02269,0.17839 0.02269,0.17837 0.02926,0.17596 0.02926,0.17597 0.02764,0.17656 0.02926,0.17596 0.02926,0.17596 0.02764,0.17655 0.02926,0.17598 0.03422,0.17413 0.03422,0.17414 0.03422,0.17413 0.03262,0.17472 0.03422,0.17415 0.03422,0.17414 0.03422,0.17412 0.03422,0.17415 0.03422,0.17414 0.03422,0.17411 0.0392,0.17233 0.03918,0.17229 0.03918,0.17232 0.04402,0.17053 0.04575,0.16988 0.04402,0.17054 0.04402,0.17052 0.05113,0.16793 0.04845,0.16889 0.05113,0.16791 0.04845,0.1689 0.05114,0.16793 0.05113,0.1679 0.04402,0.17053 0.04416,0.17048 0.04402,0.17054 0.0408,0.17173 0.03918,0.17229 0.03918,0.17231 0.03918,0.17231 0.03422,0.17414 0.03422,0.17414 0.03261,0.17472 0.03422,0.17414 0.03422,0.17413 0.03422,0.17414 0.03422,0.17413 0.03422,0.17414 0.03422,0.17414 0.03422,0.17413 0.03261,0.17473 0.03422,0.17414 0.03422,0.17414 0.03422,0.174128 0.03422,0.17413 0.03422,0.17414 0.0392,0.17231 0.03918,0.17231 0.03918,0.1723 0.03918,0.17231 0.0392,0.17231 0.04575,0.1699 0.04402,0.17054 0.04402,0.17052 0.05114,0.16791 0.04845,0.16891 0.04576,0.16989 0.04845,0.16888 0.05113,0.16792 0.04845,0.16891 0.05113,0.16791 0.05515,0.16643 0.05381,0.16692 0.05515,0.16644 0.05515,0.16643 0.05515,0.16642 0.05515,0.16643 0.05381,0.16694 0.05515,0.16643 0.05515,0.16642 0.05515,0.16644 0.05381,0.16693 0.05515,0.16644 0.05515,0.16643 0.05515,0.16642 0.05381,0.16692 0.05515,0.16644 0.05515,0.16643 0.05515,0.16642 0.05515,0.16644 0.05381,0.16693 0.05515,0.16644 0.05515,0.16643 0.05515,0.16642 0.05381,0.16694 0.05515,0.16643 0.05515,0.16643 0.06052,0.16445 0.06053,0.16446 0.06053,0.16445 0.06053,0.16446 0.06053,0.16446 0.06052,0.16445 0.06053,0.16446 0.06053,0.16446 0.06052,0.16445 0.06054,0.16446 0.06053,0.16446 0.06053,0.16445 0.06052,0.16444 0.06053,0.16446 0.06053,0.16446 0.06053,0.16446 0.06052,0.16446 0.06052,0.16445 0.06053,0.16446 0.06053,0.16446 0.06053,0.16446 0.06051,0.16443 0.06053,0.16447 0.06053,0.16446 0.06053,0.16446 0.06053,0.16446 0.06052,0.16445 0.06053,0.16446 0.06053,0.16445 0.06053,0.16447 0.06052,0.16444 0.06053,0.16445 0.06053,0.16446 0.06052,0.16445 0.06053,0.16447 0.06052,0.16445 0.06053,0.16446 0.06053,0.16446 0.06052,0.16445 0.06053,0.16447 0.06053,0.16444 0.06052,0.16446 0.06052,0.16445 0.06589,0.16249 0.06589,0.16248 0.06724,0.16199 0.06589,0.16248 0.06589,0.16247 0.06589,0.16249 0.06725,0.16198 0.06589,0.16249 0.06589,0.16248 0.06589,0.16248 0.06589,0.16247 0.06724,0.16199 0.06589,0.16249 0.06589,0.16248 0.06589,0.16248 0.06725,0.16198 0.06589,0.16249 0.06589,0.16247 0.06589,0.16248 0.06724,0.16199 0.06589,0.16247 0.06589,0.16251 0.06992,0.16098 0.0726,0.16002 0.06992,0.161 0.0726,0.15999 0.06991,0.16101 0.07704,0.15838 0.0769,0.15844 0.07529,0.15901 0.07704,0.15839 0.07703,0.15838 0.07529,0.15903 0.07703,0.15839 0.07704,0.15835 0.07529,0.15904 0.07704,0.15837 0.07704,0.15839 0.07529,0.15902 0.07704,0.15837 0.07703,0.1584 0.07529,0.15902 0.07704,0.1584 0.07704,0.15837 0.07529,0.15903 0.07704,0.15837 0.07704,0.15839 0.07527,0.15901 0.07703,0.15839 0.07704,0.15839 0.08185,0.15658 0.08187,0.15661 0.08186,0.15661 0.07529,0.15902 0.07704,0.15838 0.07703,0.15837 0.07529,0.15903 0.07703,0.15839 0.06992,0.16099 0.0726,0.16001 0.07529,0.15903 0.07704,0.15839 0.0726,0.16001 0.06992,0.161 0.0726,0.16 0.06992,0.161 0.06992,0.161 0.0726,0.16001 0.06991,0.16099 0.0726,0.16001 0.06992,0.16101 0.0726,0.16001 0.06992,0.16101 0.0726,0.16 0.06992,0.161 0.06993,0.161 0.0726,0.16001 0.06992,0.161 0.0726,0.16 0.06993,0.16101 0.0726,0.16 0.06589,0.1625 0.06589,0.16247 0.06589,0.16249 0.06725,0.16199 0.06589,0.16247 0.06589,0.16247 0.06589,0.16249 0.06725,0.16199 0.06589,0.16247 0.06589,0.16249 0.06049,0.16435 0.06053,0.16447 0.06053,0.16446 0.06052,0.16445 0.06053,0.16446 0.06053,0.16445 0.06053,0.16446 0.06052,0.16445 0.06051,0.16445 0.06054,0.16446 0.06053,0.16445 0.06053,0.16448 0.06052,0.16444 0.06053,0.16446 0.06051,0.16445 0.06053,0.16445 0.06052,0.16446 0.06054,0.16445 0.06053,0.16447 0.06052,0.16444 0.06054,0.16448 0.06052,0.16444 0.06053,0.16447 0.06053,0.16446 0.06052,0.16442 0.06053,0.16447 0.06053,0.16447 0.06053,0.16445 0.06052,0.16445 0.06053,0.16446 0.06053,0.16446 0.06053,0.16446 0.06053,0.16446 0.06051,0.16443 0.06053,0.16446 0.06053,0.16446 0.06053,0.16447 0.06052,0.16444 0.06052,0.16446 0.06053,0.16446 0.05515,0.16643 0.05515,0.16644 0.05381,0.16691 0.05515,0.16645 0.05515,0.16643 0.05515,0.16643 0.05381,0.16692 0.05515,0.16643 0.05114,0.16793 0.04845,0.16888 0.05113,0.16792 0.04845,0.16889 0.05114,0.16793 0.04845,0.1689 0.05112,0.1679 0.05113,0.16792 0.04845,0.16889 0.05113,0.16793 0.04845,0.16889 0.05114,0.16792 0.04845,0.16891 0.05114,0.16792 0.04845,0.16891 0.05112,0.16789 0.05114,0.16793 0.04845,0.16889 0.05113,0.16791 0.04845,0.1689 0.05113,0.16792 0.04845,0.1689 0.05113,0.16792 0.05515,0.16643 0.05381,0.16693 0.05515,0.16643 0.05114,0.16792 0.04845,0.16888 0.05112,0.16792 0.04402,0.17055 0.04416,0.17047 0.05112,0.16789 0.04403,0.17056 0.04575,0.16987 0.04402,0.17054 0.04402,0.17054 0.04577,0.16988 0.04402,0.17052 0.04402,0.17055 0.04575,0.16988 0.04402,0.17052 0.04402,0.17054 0.04576,0.16989 0.04402,0.17053 0.04402,0.17054 0.04402,0.17052 0.04576,0.16989 0.04402,0.17053 0.04402,0.17054 0.04575,0.16987 0.04402,0.17054 0.04402,0.17053 0.04577,0.16989 0.04402,0.17054 0.04402,0.17052 0.04575,0.16988 0.04402,0.17054 0.05114,0.16791 0.04845,0.1689 0.05114,0.16792 0.05381,0.16692 0.05515,0.16643 0.05515,0.16646 0.06052,0.16443 0.06053,0.16446 0.06053,0.16447 0.06052,0.16444 0.06054,0.16446 0.06053,0.16445 0.05515,0.16644 0.05515,0.16642 0.05381,0.16693 0.05515,0.16644 0.05515,0.16644 0.05515,0.16643 0.05381,0.16691 0.05515,0.16643 0.05515,0.16644 0.05515,0.16642 0.05515,0.16645 0.05381,0.16691 0.05515,0.16643 0.05515,0.16644 0.05515,0.16642 0.05381,0.16693 0.05515,0.16644 0.05113,0.16791 0.04845,0.16891 0.05112,0.1679 0.04845,0.16891 0.05114,0.1679 0.04845,0.1689 0.05113,0.16794 0.05112,0.16789 0.04845,0.16891 0.05114,0.16792 0.04845,0.16887 0.05113,0.16792 0.04845,0.16891 0.05114,0.16792 0.05515,0.16643 0.05381,0.16692 0.05515,0.16643 0.05515,0.16644 0.05515,0.16643 0.05381,0.16693 0.05515,0.16643 0.05515,0.16643 0.05515,0.16644 0.05515,0.16642 0.05381,0.16694 0.05515,0.16643 0.05515,0.16644 0.05515,0.16643 0.05381,0.1669 0.05515,0.16643 0.05515,0.16644 0.06053,0.16445 0.06052,0.16445 0.06053,0.16447 0.06053,0.16447 0.06052,0.16444 0.06053,0.16448 0.06051,0.16444 0.06053,0.16444 0.06053,0.16447 0.06052,0.16444 0.06053,0.16447 0.06053,0.16445 0.06053,0.16447 0.06052,0.16444 0.06053,0.16446 0.06053,0.16446 0.06053,0.16447 0.06054,0.16444 0.06052,0.16445 0.06053,0.16446 0.06054,0.16446 0.06053,0.16446 0.06052,0.16445 0.06053,0.16446 0.06053,0.16446 0.06053,0.16446 0.06053,0.16445 0.06052,0.16445 0.06053,0.16445 0.06053,0.16446 0.06053,0.16446 0.06052,0.16444 0.06053,0.16448 0.06052,0.16445 0.06052,0.16446 0.06053,0.16445 0.06053,0.16445 0.06053,0.16446 0.06053,0.16447 0.06052,0.16444 0.06053,0.16445 0.06053,0.16447 0.06053,0.16446 0.06051,0.16445 0.06053,0.16445 0.06053,0.16446 0.06053,0.16446 0.06053,0.16446 0.06052,0.16444 0.06053,0.16447 0.06053,0.16446 0.06053,0.16446 0.06052,0.16444 0.06053,0.16446 0.06053,0.16445 0.06053,0.16446 0.06053,0.16446 0.06052,0.16445 0.06053,0.16446 0.06053,0.16446 0.06052,0.16445 0.06053,0.16447 0.06053,0.16446 0.06053,0.16444 0.06052,0.16445 0.06053,0.16446 0.06053,0.16445 0.06053,0.16447 0.06053,0.16445 0.06052,0.16446 0.06053,0.16445 0.06053,0.16447 0.06053,0.16444 0.06052,0.16444 0.06053,0.16447 0.06053,0.16445 0.06053,0.16448 0.06053,0.16446 0.06052,0.16445 0.06053,0.16445 0.06053,0.16446 0.06053,0.16446 0.06052,0.16444 0.06053,0.16445 0.06053,0.16447 0.06052,0.16444 0.06053,0.16447 0.06051,0.16445 0.06053,0.16446 0.06053,0.16447 0.06052,0.16444 0.06053,0.16445 0.06053,0.16446 0.06053,0.16446 0.06051,0.16445 0.06053,0.16446 0.06589,0.16249 0.06589,0.16248 0.06725,0.16199 0.06589,0.16245 0.06589,0.1625 0.06589,0.16248 0.06724,0.16199 0.06589,0.16247 0.06589,0.16248 0.06589,0.16247 0.06589,0.1625 0.06725,0.162 0.06589,0.16247 0.06589,0.16248 0.06589,0.1625 0.06724,0.16197 0.06589,0.16248 0.06589,0.16247 0.06589,0.16249 0.06724,0.16197 0.06589,0.16251 0.06589,0.16248 0.06589,0.16246 0.06589,0.16248 0.06724,0.16198 0.06589,0.16249 0.06589,0.16249 0.06589,0.16249 0.06724,0.16196 0.06589,0.16249 0.06589,0.16248 0.06053,0.16446 0.06053,0.16445 0.06051,0.16447 0.06053,0.16445 0.06053,0.16446 0.06053,0.16446 0.06052,0.16444 0.06053,0.16445 0.06053,0.16446 0.06053,0.16447 0.06053,0.16445 0.06589,0.16247 0.06589,0.16249 0.06724,0.162 0.06589,0.16249 0.06992,0.16098 0.0726,0.16001 0.07529,0.15902 0.08005,0.15167 0.0842,0.14272 0.08634,0.13813 0.08888,0.12969 0.09365,0.12241 0.09604,0.11396 0.09244,0.10429 0.08877,0.0943 0.09116,0.0803 0.0859,0.0711 0.08224,0.0612 0.07804,0.0498 0.07541,0.0376 0.0751,0.0265 0.07311,0.016 0.07221,0.003 0.07022,-0.006 0.07108,-0.02 0.06713,-0.0308 0.06787,-0.0437 0.06426,-0.0534 0.06001,-0.065 0.06299,-0.0771 0.05771,-0.0866 0.04851,-0.0964 0.04432,-0.1077 0.0424,-0.11826 0.04197,-0.12941 0.03281,-0.139 0.02913,-0.14892 0.02071,-0.15693 0.01329,-0.16177 0.0049,-0.16426 -8.62e-4,-0.16961 -0.0086,-0.17048 -0.01102,-0.17706 -0.01772,-0.1802 -0.01946,-0.17958 -0.01772,-0.18021 -0.01772,-0.1802 -0.01286,-0.18199 -0.0061,-0.17889 0.0029,-0.17472 0.009,-0.17327 0.0099,-0.16609 0.01646,-0.16851 0.01828,-0.16357 0.02569,-0.15878 0.02672,-0.15552 0.03572,-0.15134 0.03593,-0.14579 0.04435,-0.14325 0.05173,-0.13842 0.05189,-0.13313 0.06131,-0.1327 0.0603,-0.13056 0.0603,-0.13056 0.06513,-0.13228 0.0603,-0.13054 0.06526,-0.13242 0.06689,-0.13299 0.07009,-0.13413 0.07669,-0.13656 0.07669,-0.13656 0.08163,-0.13843 0.08163,-0.13841 0.08164,-0.13843 0.08002,-0.13785 0.08163,-0.13841 0.08105,-0.14001 0.07669,-0.13655 0.07184,-0.1347 0.06348,-0.13715 0.06152,-0.14213 0.05427,-0.1469 0.05245,-0.15187 0.05245,-0.15187 0.05405,-0.15245 0.05063,-0.15685 0.04163,-0.16098 0.03708,-0.16296 0.02807,-0.16719 0.02302,-0.17093 0.01401,-0.17511 0.0063,-0.17595 4.77e-4,-0.18129 -0.0012,-0.18072 0.0054,-0.18312 -5.35e-4,-0.17908 0.0054,-0.18312 4.68e-4,-0.1813 0.0038,-0.18254 0.0011,-0.17966 -0.0012,-0.18072 4.74e-4,-0.18129 -0.0061,-0.17888 -5.29e-4,-0.17907 -0.0045,-0.17949 -0.0061,-0.17885 -0.0061,-0.17889 4.74e-4,-0.18131 -5.3e-4,-0.17906 4.71e-4,-0.18131 -0.0012,-0.18072 -0.0061,-0.17887 -0.0038,-0.17782 -0.01102,-0.17708 -0.01591,-0.17525 -0.02429,-0.17781 -0.02926,-0.17596 -0.02764,-0.17654 -0.02926,-0.17598 -0.02764,-0.17655 -0.02926,-0.17597 -0.02926,-0.17595 -0.02764,-0.17656 -0.02926,-0.17597 -0.02269,-0.17839 -0.02926,-0.17595 -0.02429,-0.17779 -0.02269,-0.17839 -0.01591,-0.17527 -0.01591,-0.17529 -0.01704,-0.17298 -0.02087,-0.17345 -0.02087,-0.17347 -0.02248,-0.17285 -0.02522,-0.16997 -0.02744,-0.17103 -0.02744,-0.17104 -0.02584,-0.17161 -0.02744,-0.17104 -0.02684,-0.16937 -0.02585,-0.17163 -0.02744,-0.17102 -0.02744,-0.17104 -0.02522,-0.16997 -0.02248,-0.17286 -0.01591,-0.17528 -0.0086,-0.17047 -0.0024,-0.16902 0.0066,-0.16486 0.01329,-0.16174 0.02072,-0.15696 0.02672,-0.15549 0.03411,-0.15077 0.04251,-0.14822 0.04931,-0.14507 0.05013,-0.13784 0.05788,-0.13714 0.06192,-0.13113 0.06272,-0.12398 0.06213,-0.12554 0.06395,-0.12054 0.06395,-0.12055 0.06951,-0.12084 0.06879,-0.1224 0.07609,-0.12327 0.07375,-0.12426 0.08032,-0.12655 0.08093,-0.12499 0.08529,-0.12842 0.08093,-0.12496 0.07872,-0.12599 0.08529,-0.12842 0.08589,-0.12683 0.08529,-0.12841 0.09085,-0.12869 0.0853,-0.12842 0.08033,-0.12655 0.07368,-0.12985 0.06526,-0.13241 0.05847,-0.13541 0.05173,-0.13856 0.04273,-0.14272 0.03768,-0.14643 0.02913,-0.14894 0.0219,-0.15371 0.0092,-0.1527 0.0034,-0.15811 -0.0051,-0.1606 -0.0123,-0.16541 -0.02006,-0.1663 -0.02744,-0.17101 -0.02765,-0.17657 -0.02926,-0.17596 -0.03422,-0.17412 -0.03422,-0.17415 -0.03918,-0.1723 -0.03422,-0.17413 -0.03918,-0.17232 -0.03918,-0.17231 -0.04402,-0.17054 -0.03918,-0.1723 -0.03918,-0.17231 -0.0392,-0.17231 -0.03918,-0.17231 -0.0408,-0.17171 -0.03918,-0.17231 -0.0392,-0.17231 -0.03918,-0.17232 -0.03918,-0.1723 -0.03918,-0.1723 -0.0392,-0.17232 -0.03422,-0.17412 -0.03424,-0.17416 -0.03422,-0.17411 -0.03422,-0.17414 -0.03262,-0.17474 -0.02926,-0.17595 -0.02926,-0.17598 -0.02765,-0.17656 -0.02926,-0.17595 -0.02926,-0.17596 -0.02764,-0.17656 -0.03422,-0.17414 -0.03422,-0.17414 -0.03422,-0.17414 -0.03422,-0.17412 -0.03422,-0.17414 -0.03918,-0.1723 -0.03918,-0.17232 -0.03918,-0.17229 -0.03918,-0.17232 -0.03918,-0.17231 -0.03918,-0.17233 -0.04575,-0.16988 -0.03918,-0.17229 -0.0324,-0.16922 -0.02838,-0.16321 -0.02381,-0.16116 -0.01481,-0.157 -0.0097,-0.15328 -7.6e-4,-0.14904 0.0069,-0.14824 0.0079,-0.141 0.0146,-0.138 0.023,-0.13541 0.03039,-0.13069 0.03705,-0.12742 0.04555,-0.12511 0.05059,-0.12127 0.05218,-0.12198 0.05059,-0.12127 0.05716,-0.12368 0.05716,-0.1237 0.06272,-0.12397 0.06213,-0.12555 0.06709,-0.12741 0.06871,-0.12799 0.07193,-0.12912 0.07368,-0.12985 0.07851,-0.13156 0.07747,-0.12941 0.08348,-0.13341 0.07851,-0.13155 0.07851,-0.13156 0.08348,-0.13341 0.07689,-0.13099 0.07669,-0.13657 0.07001,-0.1397 0.06649,-0.14396 0.06084,-0.14932 0.05742,-0.15368 0.05063,-0.15684 0.04819,-0.16341 0.04205,-0.1648 0.03303,-0.16901 0.03283,-0.17452 0.02383,-0.17869 0.02438,-0.18264 0.01523,-0.18673 0.01344,-0.19166 0.01839,-0.19351 0.02496,-0.19592 0.01839,-0.19349 0.02496,-0.19592 0.01839,-0.19349 0.02496,-0.19591 0.01838,-0.19352 0.01999,-0.19407 0.01344,-0.19167 0.01358,-0.19172 0.0086,-0.18988 0.0086,-0.1899 0.0036,-0.18807 0.002,-0.18747 0.0036,-0.18805 -0.0013,-0.18626 -0.003,-0.18563 -0.0013,-0.18623 0.002,-0.18748 -0.0013,-0.18622 0.0036,-0.18807 0.002,-0.18749 0.0086,-0.18988 0.0036,-0.18805 0.0086,-0.18991 0.0086,-0.18989 0.002,-0.18745 0.0036,-0.18808 -0.0013,-0.18623 -0.003,-0.18564 -0.0079,-0.18383 -0.01288,-0.182 -0.02269,-0.17835 -0.02269,-0.17839 -0.02926,-0.17598 -0.02926,-0.17595 -0.03424,-0.17415 -0.02764,-0.17653 -0.02926,-0.17598 -0.02764,-0.17656 -0.02926,-0.17596 -0.02926,-0.17595 -0.02764,-0.17656 -0.02429,-0.17781 -0.02269,-0.17836 -0.02429,-0.1778 -0.01773,-0.18022 -0.01772,-0.1802 -0.01772,-0.18023 -0.02428,-0.17777 -0.01772,-0.18022 -0.01772,-0.18022 -0.02269,-0.17839 -0.02428,-0.17777 -0.01772,-0.18022 -0.01772,-0.1802 -0.01286,-0.18199 -0.01288,-0.18199 -0.0079,-0.18382 -0.0013,-0.18624 -0.003,-0.18566 0.0036,-0.18804 0.002,-0.18747 0.01515,-0.19231 0.01344,-0.19168 0.01839,-0.19348 0.01999,-0.19411 0.01839,-0.19349 0.01344,-0.19167 0.01839,-0.19351 0.02014,-0.19411 0.01839,-0.19351 0.02014,-0.19415 0.02335,-0.19531 0.01999,-0.19407 0.02334,-0.19534 0.02496,-0.19592 0.01839,-0.19349 0.02495,-0.19593 0.01839,-0.19349 0.02013,-0.19414 0.01839,-0.19349 0.01344,-0.19167 0.02013,-0.19414 0.01344,-0.19167 0.0086,-0.18989 0.0086,-0.18989 0.002,-0.18747 0.0086,-0.18989 0.0036,-0.18807 -0.003,-0.18564 0.0036,-0.18807 -0.0013,-0.18623 -0.003,-0.18565 -0.0013,-0.18622 -0.003,-0.18564 -0.0013,-0.18625 -0.003,-0.18564 -0.0013,-0.18624 0.002,-0.18747 -0.0013,-0.18622 -0.003,-0.18565 -0.0013,-0.18625 -0.003,-0.18563 -0.0079,-0.18381 -0.0063,-0.18442 -0.0079,-0.18381 -0.0079,-0.18382 -0.0013,-0.18625 -0.0079,-0.18378 -0.003,-0.18566 -0.0013,-0.18625 -0.003,-0.18564 -0.0013,-0.18623 -0.003,-0.18564 -0.0013,-0.18623 0.0036,-0.18808 -0.003,-0.18564 -0.0013,-0.18622 -0.0079,-0.18382 -0.0079,-0.18383 -0.0079,-0.18382 -0.01288,-0.18197 -0.01286,-0.182 -0.01286,-0.182 -0.01771,-0.18019 -0.01772,-0.18022 -0.01772,-0.18022 -0.01288,-0.18198 -0.0079,-0.18381 -0.0079,-0.18382 -0.0063,-0.1844 -0.003,-0.18565 -0.0013,-0.18625 -0.003,-0.18564 -0.0013,-0.18622 -0.003,-0.18565 -0.0079,-0.18383 -0.0063,-0.18441 -0.01286,-0.18197 -0.01286,-0.182 -0.01946,-0.17957 -0.01286,-0.182 -0.01286,-0.18197 -0.0045,-0.17948 -0.0036,-0.1723 6.75e-4,-0.17578 -0.002,-0.1729 -0.0043,-0.17394 -0.0043,-0.17395 -0.002,-0.17291 -0.0043,-0.17393 -0.0036,-0.1723 -0.0043,-0.17396 -0.002,-0.1729 -0.0043,-0.17396 0.0012,-0.17412 0.0023,-0.17636 -0.0036,-0.17233 -0.0043,-0.17394 -0.0093,-0.17211 -0.0086,-0.17049 -0.0093,-0.17212 -0.0086,-0.17048 -0.0093,-0.17211 -0.002,-0.1729 -0.0043,-0.17394 -0.0036,-0.17232 0.0023,-0.17636 0.0012,-0.17413 0.0023,-0.17637 6.81e-4,-0.17578 0.0029,-0.17473 -0.0043,-0.17395 -0.0086,-0.17047 -0.01102,-0.17704 -0.01772,-0.18022 -0.01772,-0.18022 -0.01286,-0.18199 -0.01288,-0.182 -0.0079,-0.18379 -0.0079,-0.18383 -0.0013,-0.18623 -0.003,-0.18564 -0.0013,-0.18624 0.002,-0.18747 0.0036,-0.18807 -0.0013,-0.18622 0.002,-0.18747 0.0036,-0.18807 -0.003,-0.18564 -0.0013,-0.18624 -0.003,-0.18564 -0.0013,-0.18624 -0.0079,-0.18382 -0.0079,-0.18383 -0.0063,-0.18439 -0.0079,-0.18382 -0.0079,-0.18381 -0.01286,-0.18199 -0.01286,-0.182 -0.0079,-0.1838 -0.0063,-0.18441 -0.0079,-0.18382 -0.0079,-0.18383 -0.0063,-0.1844 -0.01288,-0.18198 -0.0079,-0.18383 -0.01286,-0.18197 -0.01772,-0.18023 -0.01946,-0.17956 -0.02268,-0.17839 -0.02269,-0.17839 -0.02926,-0.17596 -0.02267,-0.17837 -0.01764,-0.17464 -0.01591,-0.17529 -0.01047,-0.17539 -0.0061,-0.1789 -0.01102,-0.17704 -0.0045,-0.17948 -0.0054,-0.17724 -0.0012,-0.1807 -0.0045,-0.17948 -0.0012,-0.18071 4.69e-4,-0.18132 0.0045,-0.18088 4.73e-4,-0.1813 0.0054,-0.18312 0.01047,-0.184968 0.01584,-0.1851 0.02203,-0.18362 0.02262,-0.18198 0.0304,-0.18113 0.03597,-0.18129 0.04275,-0.17819 0.04939,-0.17503 0.05792,-0.17262 0.05859,-0.16542 0.06882,-0.15787 0.07562,-0.15475 0.083,-0.15001 0.09076,-0.14922 0.09639,-0.14381 0.107273,-0.1347 0.108508,-0.13142 0.109105,-0.1297 0.11271,-0.11997 0.114541,-0.11497 0.116957,-0.10839 0.125551,-0.10025 0.127311,-0.0955 0.134088,-0.0924 0.136505,-0.0857 0.144917,-0.0832 0.146856,-0.0728 0.156077,-0.068 0.157051,-0.0654 0.162485,-0.0659 0.164445,-0.0605 0.166435,-0.0552 0.168904,-0.0485 0.167916,-0.051 0.170535,-0.044 0.168889,-0.0485 0.169893,-0.0458 0.170535,-0.044 0.170533,-0.044 0.169878,-0.0458 0.168904,-0.0484 0.166436,-0.0552 0.166421,-0.0552 0.166447,-0.0552 0.164446,-0.0605 0.164459,-0.0605 0.162484,-0.0659 0.16247,-0.0659 0.162489,-0.0659 0.15838,-0.0771 0.15838,-0.0771 0.15902,-0.0752 0.15661,-0.0819 0.1566,-0.0818 0.15661,-0.0819 0.1566,-0.0818 0.1566,-0.0818 0.15478,-0.0868 0.15478,-0.0868 0.15295,-0.0918 0.15417,-0.0884 0.15478,-0.0868 0.15478,-0.0868 0.15478,-0.0868 0.15478,-0.0868 0.15476,-0.0868 0.15661,-0.0818 0.15661,-0.0818 0.1566,-0.0819 0.1566,-0.0818 0.1566,-0.0818 0.161,-0.0699 0.16001,-0.0726 0.16101,-0.0699 0.16,-0.0726 0.16446,-0.0605 0.16446,-0.0605 0.16691,-0.0538 0.16644,-0.0552 0.16792,-0.0511 0.17053,-0.044 0.1723,-0.0392 0.17231,-0.0392 0.17414,-0.0342 0.17597,-0.0293 0.17838,-0.0227 0.17778,-0.0243 0.18022,-0.0177 0.18199,-0.0129 0.18441,-0.006 0.18746,0.001 0.1899,0.009 0.19167,0.0129 0.19409,0.02 0.19533,0.0233 0.19773,0.0299 0.19957,0.0349 0.19706,0.0433 0.19824,0.0465 0.19902,0.0536 0.20249,0.058 0.20432,0.0631 0.20431,0.0631 0.2051,0.0702 0.20298,0.0746 0.20544,0.0812 0.20379,0.0818 0.20723,0.0862 0.20561,0.0868 0.20906,0.0911 0.20801,0.0934 0.21088,0.0961 0.20491,0.1001 0.20671,0.1051 0.20776,0.10282 0.20672,0.1051 0.20672,0.10511 0.20524,0.11125 0.20361,0.11182 0.20359,0.11182 0.20361,0.11183 0.2036,0.11182 0.20359,0.11183 0.19867,0.11368 0.19867,0.11368 0.19203,0.11611 0.19378,0.1154 0.19379,0.1154 0.19203,0.11612 0.19379,0.1154 0.19378,0.1154 0.1872,0.11783 0.18721,0.11783 0.18385,0.11911 0.18224,0.11969 0.18721,0.11783 0.18882,0.11726 0.1872,0.11783 0.18882,0.11726 0.1872,0.11783 0.18225,0.11969 0.18224,0.11968 0.17727,0.12155 0.17728,0.12155 0.17231,0.12326 0.17231,0.12327 0.1707,0.12383 0.17231,0.12326 0.17727,0.12155 0.17232,0.12327 0.17231,0.12326 0.16573,0.12569 0.16748,0.12512 0.16573,0.1257 0.17232,0.12326 0.1723,0.12327 0.17728,0.12155 0.1707,0.12383 0.16734,0.12512 0.16574,0.12569 0.16251,0.12699 0.16091,0.12755 0.16077,0.12755 0.15593,0.12927 0.16252,0.12698 0.15908,0.12256 0.15896,0.122678 0.16009,0.12041 0.15909,0.12255 0.15909,0.12255 0.15895,0.12269 0.16506,0.11854 0.16392,0.12084 0.16566,0.12011 0.1705,0.1184 0.16888,0.11898 0.16989,0.11668 0.17049,0.11841 0.163916,0.12083 0.16566,0.12011 0.1699,0.11669 0.16888,0.11897 0.17049,0.11841 0.1705,0.1184 0.16989,0.11668 0.16392,0.12084 0.16566,0.12011 0.16392,0.12084 0.1705,0.1184 0.16988,0.11668 0.17547,0.11655 0.18042,0.11468 0.18042,0.11469 0.17983,0.11311 0.18699,0.11225 0.18539,0.11297 0.18883,0.11725 0.18223,0.11969 0.18224,0.11969 0.18225,0.11969 0.17728,0.12155 0.17727,0.12154 0.17728,0.12155 0.17727,0.12141 0.17727,0.12154 0.17727,0.12155 0.18225,0.11969 0.18223,0.11969 0.17729,0.12154 0.18224,0.1197 0.18385,0.11911 0.18224,0.11969 0.17727,0.12154 0.18226,0.11969 0.18222,0.11969 0.18226,0.11969 0.18384,0.11912 0.18224,0.11969 0.18224,0.11969 0.18223,0.11968 0.18884,0.11726 0.18223,0.11969 0.18225,0.11969 0.18223,0.11968 0.18881,0.11727 0.18722,0.11782 0.18224,0.1197 0.18224,0.11968 0.18882,0.11726 0.18719,0.11783 0.18226,0.11969 0.18881,0.11726 0.18721,0.11782 0.18882,0.11726 0.18719,0.11783 0.18884,0.11726 0.18718,0.11783 0.18722,0.11783 0.18385,0.11912 0.1872,0.11782 0.18721,0.11784 0.18385,0.11911 0.18224,0.11969 0.18721,0.11783 0.18225,0.11969 0.18384,0.11911 0.18225,0.11969 0.1872,0.11783 0.18883,0.11726 0.18222,0.11969 0.18226,0.11969 0.18222,0.11968 0.18882,0.11726 0.18721,0.11783 0.18721,0.11784 0.1888,0.11725 0.18226,0.11969 0.18721,0.11783 0.18881,0.11725 0.18719,0.11784 0.18884,0.11725 0.18719,0.11784 0.18883,0.11725 0.1872,0.11783 0.18721,0.11783 0.18385,0.11911 0.1872,0.11784 0.18721,0.11783 0.18385,0.11912 0.1872,0.11782 0.18226,0.11969 0.18222,0.11969 0.18385,0.11912 0.18226,0.11968 0.17727,0.12155 0.17727,0.12155 0.17728,0.1214 0.1707,0.12398 0.17231,0.12327 0.16747,0.12512 0.16708,0.11396 0.16807,0.11183 0.16868,0.11339 0.16807,0.11182 0.16707,0.11397 0.16324,0.11354 0.16211,0.11583 0.16807,0.11183 0.16385,0.11525 0.16151,0.11426 0.16383,0.11526 0.15713,0.11768 0.16326,0.11354 0.16211,0.11583 0.16322,0.11354 0.15714,0.11768 0.16151,0.11426 0.16384,0.11525 0.15667,0.11597 0.16385,0.11526 0.16209,0.11583 0.16809,0.11182 0.16867,0.1134 0.17304,0.10996 0.17365,0.11168 0.178,0.10811 0.18358,0.10796 0.18458,0.10567 0.1884,0.10626 0.18954,0.10395 0.19015,0.10553 0.19204,0.11612 0.18882,0.11725 0.18721,0.11783 0.18882,0.11725 0.1872,0.11784 0.18722,0.11782 0.18881,0.11727 0.1872,0.11783 0.19378,0.1154 0.19377,0.11539 0.18722,0.11783 0.19379,0.1154 0.19203,0.11612 0.19379,0.1154 0.1872,0.11783 0.19378,0.11539 0.19377,0.1154 0.19206,0.11612 0.19864,0.11354 0.1938,0.11539 0.19202,0.11612 0.19379,0.11539 0.1938,0.1154 0.18719,0.11783 0.18882,0.11726 0.1872,0.11783 0.18721,0.11783 0.18882,0.11726 0.18224,0.11969 0.18223,0.11968 0.18882,0.11727 0.18721,0.11782 0.18721,0.11783 0.18882,0.11726 0.18721,0.11783 0.18881,0.11725 0.19203,0.11612 0.18883,0.11725 0.1872,0.11784 0.18882,0.11725 0.18719,0.11783 0.18722,0.11783 0.18881,0.11726 0.18721,0.11784 0.18882,0.11725 0.19204,0.11611 0.18882,0.11726 0.18721,0.11783 0.1888,0.11726 0.18723,0.11783 0.1872,0.11782 0.18879,0.11726 0.18723,0.11783 0.1888,0.11727 0.19205,0.1161 0.18881,0.11726 0.18721,0.11783 0.18882,0.11725 0.18722,0.11785 0.18719,0.11782 0.1888,0.11726 0.18721,0.11783 0.18882,0.11725 0.19204,0.11613 0.18882,0.11725 0.18722,0.11783 0.18881,0.11725 0.18721,0.11783 0.19377,0.1154 0.1872,0.11783 0.18721,0.11783 0.18882,0.11727 0.19379,0.11539 0.18721,0.11783 0.1872,0.11783 0.18882,0.11725 0.1872,0.11783 0.19379,0.1154 0.18719,0.11783 0.18882,0.11726 0.18721,0.11784 0.19379,0.11539 0.18721,0.11783 0.1888,0.11726 0.18721,0.11782 0.1872,0.11784 0.19378,0.11539 0.18883,0.11726 0.18721,0.11784 0.1872,0.11782 0.1888,0.11726 0.18721,0.11783 0.18882,0.11725 0.18722,0.11784 0.18721,0.11782 0.19195,0.1104 0.19198,0.11053 0.18961,0.10954 0.19196,0.11054 0.1854,0.11297 0.19197,0.11053 0.19136,0.10882 0.18538,0.11282 0.18701,0.11241 0.19022,0.1111 0.19195,0.11053 0.19137,0.10882 0.19023,0.11111 0.19197,0.11053 0.19021,0.11111 0.19137,0.10882 0.19195,0.1104 0.19023,0.11111 0.19686,0.10867 0.19624,0.10696 0.19197,0.11055 0.19021,0.1111 0.19198,0.11054 0.19684,0.10869 0.19625,0.10694 0.19685,0.10869 0.20179,0.10683 0.19685,0.10869 0.19623,0.10694 0.19524,0.10924 0.19684,0.1087 0.19866,0.11353 0.19868,0.11369 0.19866,0.11354 0.19379,0.11539 0.19701,0.11426 0.19868,0.11368 0.19866,0.11368 0.20361,0.11183 0.20358,0.11182 0.19865,0.11369 0.19869,0.11354 0.19866,0.11367 0.19867,0.11369 0.19867,0.11354 0.2036,0.11182 0.19866,0.11369 0.19866,0.11353 0.19702,0.11425 0.19868,0.11355 0.19866,0.11369 0.20361,0.11181 0.19865,0.11355 0.19869,0.11368 0.19866,0.11368 0.19866,0.11369 0.19868,0.11354 0.19699,0.11424 0.19868,0.11369 0.19868,0.11368 0.19866,0.11369 0.19866,0.11354 0.19868,0.11368 0.19866,0.11368 0.19866,0.11369 0.20361,0.11182 0.20361,0.11182 0.2036,0.11183 0.2036,0.11181 0.20359,0.11183 0.20362,0.11182 0.20852,0.11002 0.2102,0.10935 0.20852,0.11003 0.20852,0.11001 0.21018,0.10936 0.20853,0.11002 0.21512,0.10748 0.21347,0.10825 0.21511,0.10749 0.21347,0.10815 0.21513,0.10759 0.21345,0.10814 0.22005,0.10572 0.22004,0.10583 0.21347,0.10815 0.2151,0.10748 0.21512,0.10748 0.21347,0.10815 0.22006,0.10561 0.22004,0.10572 0.21841,0.10638 0.22002,0.10583 0.22006,0.10572 0.22004,0.10572 0.22005,0.10571 0.21842,0.10639 0.22004,0.10583 0.22004,0.10571 0.22004,0.10561 0.2184,0.10639 0.22005,0.10572 0.22005,0.10583 0.22005,0.10561 0.2184,0.10638 0.22003,0.10572 0.22006,0.10571 0.22004,0.10573 0.22004,0.10561 0.21842,0.10638 0.22005,0.10572 0.22004,0.10583 0.22005,0.10561 0.21839,0.10638 0.21511,0.10748 0.21511,0.10748 0.2184,0.10639 0.22005,0.10571 0.22005,0.10583 0.22003,0.10573 0.21842,0.10638 0.22005,0.10571 0.21823,0.10079 0.21822,0.1009 0.21764,0.0991 0.21657,0.10142 0.21822,0.10089 0.21825,0.1008 0.21761,0.0992 0.2166,0.10141 0.21823,0.1008 0.21823,0.1009 0.21823,0.10079 0.21104,0.10152 0.2133,0.10265 0.20672,0.10506 0.2043,0.0985 0.20472,0.0945 0.20068,0.0886 0.19884,0.0836 0.19134,0.0735 0.17948,0.0665 0.17261,0.0579 0.16837,0.0463 0.15755,0.0371 0.15551,0.0268 0.14532,0.0193 0.12955,0.0115 0.11769,0.005 0.10255,-4.1e-4 0.0862,-0.0103 0.0735,-0.0129 0.0576,-0.0212 0.0457,-0.023 0.0317,-0.0305 0.0166,-0.0361 0.003,-0.0438 -0.009,-0.0511 -0.0212,-0.0577 -0.0347,-0.0655 -0.0462,-0.0745 -0.0541,-0.081 -0.0687,-0.0906 -0.0784,-0.0962 -0.0882,-0.10748 -0.101,-0.11211 -0.11023,-0.12183 -0.11927,-0.12598 -0.13028,-0.12569 -0.14418,-0.12812 -0.15592,-0.12942 -0.15595,-0.12941 -0.16092,-0.12756 -0.16091,-0.12756 -0.1723,-0.12325 -0.17727,-0.12155 -0.17727,-0.1214 -0.18224,-0.1197 -0.18385,-0.11911 -0.17567,-0.12212 -0.17727,-0.1214 -0.17728,-0.12155 -0.17232,-0.12327 -0.1723,-0.12326 -0.17232,-0.12326 -0.16573,-0.1257 -0.16748,-0.12512 -0.16077,-0.12755 -0.16573,-0.12571 -0.16748,-0.12511 -0.16077,-0.12756 -0.16748,-0.12511 -0.17231,-0.12326 -0.16574,-0.12571 -0.1723,-0.12326 -0.17231,-0.12326 -0.16574,-0.1257 -0.16749,-0.12511 -0.16572,-0.12571 -0.16749,-0.12511 -0.16573,-0.1257 -0.1609,-0.12755 -0.16749,-0.12513 -0.16572,-0.12568 -0.16748,-0.12513 -0.16575,-0.12569 -0.16746,-0.12513 -0.17232,-0.12326 -0.1707,-0.12384 -0.17232,-0.12325 -0.17727,-0.12141 -0.17231,-0.12327 -0.17232,-0.12326 -0.17727,-0.12155 -0.17069,-0.12398 -0.17231,-0.12327 -0.17727,-0.12153 -0.17231,-0.12327 -0.17729,-0.12155 -0.17727,-0.12155 -0.1723,-0.12325 -0.17567,-0.12213 -0.17232,-0.12326 -0.17232,-0.12326 -0.17727,-0.12141 -0.1723,-0.12326 -0.17071,-0.12385 -0.17726,-0.12155 -0.17231,-0.12326 -0.17728,-0.12154 -0.17728,-0.12155 -0.1723,-0.12326 -0.17729,-0.12154 -0.17728,-0.12142 -0.17069,-0.12383 -0.17728,-0.12154 -0.17728,-0.12142 -0.1723,-0.12325 -0.17232,-0.12326 -0.1723,-0.12327 -0.16575,-0.12569 -0.16747,-0.12513 -0.1707,-0.12398 -0.16749,-0.12512 -0.16574,-0.1257 -0.16747,-0.12512 -0.16574,-0.12569 -0.16747,-0.12512 -0.16747,-0.12512 -0.16574,-0.1257 -0.16748,-0.12512 -0.17069,-0.12399 -0.17231,-0.12326 -0.17232,-0.12326 -0.17231,-0.12327 -0.1707,-0.12382 -0.17231,-0.12327 -0.17231,-0.12326 -0.1707,-0.12384 -0.17231,-0.12326 -0.17231,-0.12326 -0.17231,-0.12326 -0.17071,-0.12399 -0.17229,-0.12326 -0.17231,-0.12327 -0.17729,-0.12153 -0.17727,-0.12142 -0.17231,-0.12326 -0.17728,-0.12154 -0.17069,-0.12384 -0.17231,-0.12327 -0.17232,-0.12325 -0.17231,-0.12327 -0.1707,-0.12398 -0.17231,-0.12326 -0.17231,-0.12326 -0.17232,-0.12327 -0.1707,-0.12398 -0.16747,-0.12512 -0.1723,-0.12326 -0.17071,-0.12384 -0.16747,-0.12512 -0.16576,-0.1257 -0.1625,-0.12698 -0.16573,-0.12569 -0.16091,-0.12755 -0.16252,-0.12699 -0.16573,-0.12569 -0.16077,-0.12755 -0.1625,-0.12698 -0.16093,-0.12756 -0.16075,-0.12755 -0.16251,-0.12698 -0.16574,-0.1257 -0.16089,-0.12755 -0.16253,-0.12699 -0.15592,-0.12941 -0.15098,-0.13112 -0.15594,-0.12942 -0.15594,-0.12941 -0.15595,-0.12928 -0.15593,-0.1294 -0.1609,-0.12755 -0.15595,-0.12941 -0.15593,-0.12942 -0.16251,-0.12698 -0.15594,-0.12941 -0.16091,-0.12755 -0.16077,-0.12756 -0.16251,-0.12699 -0.16078,-0.12755 -0.16089,-0.12755 -0.16748,-0.12511 -0.1609,-0.12756 -0.16573,-0.1257 -0.16748,-0.12512 -0.16574,-0.1257 -0.1675,-0.12513 -0.16747,-0.12512 -0.16574,-0.12568 -0.16747,-0.12513 -0.17069,-0.12384 -0.16748,-0.12512 -0.16573,-0.1257 -0.16748,-0.12512 -0.16573,-0.12568 -0.16749,-0.12513 -0.17231,-0.12327 -0.17071,-0.12397 -0.1723,-0.12326 -0.16746,-0.12513 -0.17072,-0.12384 -0.16748,-0.12512 -0.16573,-0.12568 -0.1723,-0.12327 -0.17234,-0.12327 -0.16572,-0.1257 -0.17231,-0.12326 -0.17232,-0.12326 -0.17231,-0.12326 -0.17068,-0.12384 -0.17233,-0.12326 -0.17231,-0.12327 -0.1723,-0.12325 -0.17071,-0.12384 -0.1723,-0.12327 -0.17232,-0.12326 -0.17726,-0.12155 -0.17231,-0.12327 -0.1707,-0.12397 -0.17728,-0.12154 -0.17232,-0.12327 -0.17231,-0.12327 -0.17726,-0.12154 -0.1773,-0.12155 -0.17068,-0.12384 -0.17728,-0.1214 -0.17727,-0.12155 -0.17232,-0.12326 -0.17727,-0.12155 -0.17727,-0.12154 -0.17728,-0.12156 -0.17729,-0.12155 -0.18223,-0.11968 -0.18225,-0.11969 -0.18204,-0.11411 -0.18041,-0.11469 -0.18478,-0.11125 -0.18043,-0.11468 -0.17546,-0.11654 -0.17051,-0.1184 -0.16987,-0.11669 -0.16392,-0.12083 -0.16071,-0.12198 -0.15726,-0.11769 -0.15968,-0.10925 -0.15962,-0.10366 -0.15605,-0.0994 -0.1578,-0.0988 -0.15606,-0.0994 -0.15221,-0.099 -0.15121,-0.10125 -0.15124,-0.10124 -0.15282,-0.10067 -0.14625,-0.10296 -0.14625,-0.10297 -0.15122,-0.10125 -0.15122,-0.10125 -0.14565,-0.10138 -0.15283,-0.10067 -0.1511,-0.10124 -0.14626,-0.1031 -0.15121,-0.10125 -0.15283,-0.10067 -0.14624,-0.10296 -0.14566,-0.10139 -0.14867,-0.10953 -0.14311,-0.10982 -0.14142,-0.1104 -0.14968,-0.10739 -0.14807,-0.10796 -0.15305,-0.1061 -0.15785,-0.10439 -0.16446,-0.10196 -0.16444,-0.10196 -0.16686,-0.10854 -0.16646,-0.11239 -0.16567,-0.12011 -0.16573,-0.1257 -0.16748,-0.12512 -0.16573,-0.1257 -0.17231,-0.12326 -0.17232,-0.12326 -0.17231,-0.12327 -0.1707,-0.12384 -0.17727,-0.12154 -0.17231,-0.12327 -0.17231,-0.12326 -0.17231,-0.12326 -0.17728,-0.12155 -0.1707,-0.12384 -0.17231,-0.12326 -0.17727,-0.12154 -0.17231,-0.12327 -0.17231,-0.12326 -0.17204,-0.12492 -0.1675,-0.12512 -0.1609,-0.12756 -0.16566,-0.12011 -0.16392,-0.12084 -0.16325,-0.11354 -0.16706,-0.11397 -0.16807,-0.11182 -0.16386,-0.11526 -0.15666,-0.11596 -0.15727,-0.11769 -0.15171,-0.11783 -0.14734,-0.12126 -0.14673,-0.11969 -0.14242,-0.12312 -0.14071,-0.12369 -0.14674,-0.1197 -0.14734,-0.12125 -0.14672,-0.11969 -0.14734,-0.12126 -0.14513,-0.12026 -0.14243,-0.12313 -0.14171,-0.12154 -0.13584,-0.12555 -0.13586,-0.12555 -0.13198,-0.12512 -0.13085,-0.12742 -0.13026,-0.12569 -0.12598,-0.12913 -0.13027,-0.12569 -0.13085,-0.12741 -0.13027,-0.1257 -0.13743,-0.12498 -0.13512,-0.12383 -0.13284,-0.13227 -0.1327,-0.13227 -0.12971,-0.139 -0.12468,-0.14085 -0.11812,-0.14327 -0.1197,-0.14271 -0.11811,-0.14327 -0.11969,-0.14271 -0.11812,-0.14327 -0.11968,-0.14271 -0.11811,-0.14327 -0.1197,-0.14272 -0.11311,-0.14507 -0.10811,-0.14693 -0.0984,-0.15054 -0.0918,-0.15294 -0.0918,-0.15295 -0.0818,-0.1566 -0.0818,-0.15661 -0.0818,-0.1566 -0.077,-0.15838 -0.0699,-0.16101 -0.0672,-0.16198 -0.066,-0.16249 -0.0605,-0.16445 -0.0552,-0.16643 -0.0485,-0.16889 -0.0392,-0.17232 -0.0392,-0.17229 -0.0294,-0.17598 -0.0294,-0.17597 -0.0227,-0.17838 -0.0177,-0.18021 -0.0128,-0.18198 -0.008,-0.18382 -10e-4,-0.18624 10e-4,-0.18747 0.008,-0.18989 0.0128,-0.19167 0.0202,-0.19413 0.0233,-0.19532 0.0317,-0.19282 0.0368,-0.19463 0.0439,-0.195418 0.0465,-0.19825 0.0482,-0.19888 0.0515,-0.20007 0.0605,-0.19591 0.0616,-0.19263 0.0706,-0.18845 0.0741,-0.1897 0.0758,-0.18477 0.0848,-0.18055 0.0842,-0.18231 0.0915,-0.17752 0.0982,-0.17437 0.0977,-0.17598 0.10511,-0.17123 0.10739,-0.16465 0.11525,-0.16384 0.11425,-0.1615 0.12198,-0.1607 0.12441,-0.15412 0.13114,-0.15098 0.13169,-0.14936 0.13299,-0.146 0.13541,-0.13942 0.13656,-0.13628 0.13728,-0.13441 0.13899,-0.1297 0.14143,-0.12313 0.14272,-0.11968 0.14327,-0.11813 0.1469,-0.1081 0.1487,-0.10339 0.15237,-0.0934 0.15477,-0.0868 0.15663,-0.0818 0.15658,-0.0818 0.1572,-0.0802 0.15661,-0.0819 0.15838,-0.0771 0.15838,-0.0771 0.15902,-0.0752 0.16002,-0.0726 0.16247,-0.0659 0.16445,-0.0605 0.16792,-0.0511 0.16891,-0.0485 0.16791,-0.0512 0.16889,-0.0485 0.17231,-0.0392 0.17231,-0.0392 0.17172,-0.0408 0.1723,-0.0392 0.17473,-0.0326 0.17414,-0.0342 0.17415,-0.0342 0.17596,-0.0293 0.17838,-0.0227 0.1778,-0.0243 0.17839,-0.0227 0.17773,-0.0245 0.17836,-0.0227 0.17597,-0.0293 0.17839,-0.0227 0.17345,-0.0209 0.16807,-0.0152 0.16719,-0.007 0.16553,-0.007 0.16555,-0.007 0.16717,-0.007 0.16619,-0.006 0.16555,-0.007 0.1672,-0.007 0.16736,-0.001 0.16554,-0.007 0.16541,-0.0129 0.16135,-0.0182 0.16193,-0.0166 0.16541,-0.0129 0.16314,-0.0129 0.16376,-0.0114 0.16375,-0.0114 0.16719,-0.007 0.16554,-0.007 0.16739,-0.001 0.16961,-8.6e-4 0.16737,-0.001 0.16737,-0.001 0.16901,-0.003 0.16796,-2.6e-4 0.1692,0.003 0.17142,0.004 0.16922,0.003 0.17161,0.01 0.17084,0.003 0.17473,0.003 0.17889,-0.006 0.18198,-0.0129 0.18381,-0.009 0.18441,-0.006 0.18565,-0.003 0.18624,-0.001 0.18745,0.001 0.18808,0.004 0.18806,0.004 0.18747,0.001 0.18987,0.009 0.18992,0.009 0.18989,0.009 0.18988,0.009 0.18989,0.009 0.1899,0.009 0.18988,0.009 0.18989,0.009 0.18991,0.009 0.18804,0.004 0.18931,0.007 0.18989,0.009 0.18806,0.004 0.18808,0.004 0.18987,0.009 0.18748,0.001 0.18806,0.004 0.1899,0.009 0.18806,0.004 0.18988,0.009 0.18749,0.001 0.18986,0.009 0.19233,0.0151 0.18989,0.009 0.19168,0.0129 0.18988,0.009 0.18989,0.009 0.18747,0.001 0.18807,0.004 0.18566,-0.003 0.18622,-10e-4 0.1838,-0.009 0.18623,-0.001 0.18566,-0.003 0.18383,-0.009 0.18623,-0.001 0.18381,-0.009 0.18623,-10e-4 0.18565,-0.003 0.18622,-0.001 0.18566,-0.003 0.18624,-0.001 0.18564,-0.003 0.18624,-10e-4 0.18564,-0.003 0.18624,-0.001 0.18564,-0.003 0.18565,-0.003 0.18622,-0.001 0.18808,0.004 0.18746,0.001 0.18805,0.004 0.18627,-10e-4 0.18561,-0.003 0.18624,-0.001 0.18383,-0.009 0.18564,-0.003 0.18627,-10e-4 0.18567,-0.003 0.18628,-0.001 0.18564,-0.003 0.18805,0.004 0.18807,0.004 0.18565,-0.003 0.18807,0.004 0.18805,0.004 0.18565,-0.003 0.18807,0.004 0.18564,-0.003 0.18622,-10e-4 0.18565,-0.003 0.18625,-0.001 0.18563,-0.003 0.18624,-0.001 0.18747,0.001 0.18806,0.004 0.18626,-0.001 0.18746,0.001 0.18805,0.004 0.18806,0.004 0.18565,-0.003 0.18382,-0.009 0.18623,-0.001 0.18563,-0.003 0.18625,-10e-4 0.18565,-0.003 0.18622,-0.001 0.18566,-0.003 0.18622,-0.001 0.18808,0.004 0.18746,0.001 0.18806,0.004 0.18806,0.004 0.18749,0.001 0.18989,0.009 0.18805,0.004 0.18808,0.004 0.18988,0.009 0.18749,10e-4 0.18987,0.009 0.18806,0.004 0.18807,0.004 0.18989,0.009 0.18748,10e-4 0.18806,0.004 0.18623,-0.001 0.18565,-0.003 0.18806,0.004 0.18564,-0.003 0.18623,-0.001 0.18565,-0.003 0.18623,-10e-4 0.18747,10e-4 0.18624,-10e-4 0.18807,0.004 0.18565,-0.003 0.18807,0.004 0.18745,0.001 0.18625,-0.001 0.18564,-0.003 0.1844,-0.006 0.18565,-0.003 0.18624,-0.001 0.18382,-0.009 0.18565,-0.003 0.1844,-0.006 0.18563,-0.003 0.18624,-10e-4 0.18566,-0.003 0.18805,0.004 0.18565,-0.003 0.18807,0.004 0.18804,0.004 0.18566,-0.003 0.18805,0.004 0.18807,0.004 0.18748,0.001 0.18805,0.004 0.18807,0.004 0.18747,0.001 0.1899,0.009 0.18988,0.009 0.18988,0.009 0.18991,0.009 0.18988,0.009 0.18807,0.004 0.18989,0.009 0.18805,0.004 0.18749,0.001 0.18806,0.004 0.18805,0.004 0.18749,0.001 0.18804,0.004 0.18808,0.004 0.18749,0.001 0.18803,0.004 0.18807,0.004 0.18808,0.004 0.18495,0.01 0.18254,0.004 0.18149,0.006 0.18312,0.006 0.18073,-0.001 0.1831,0.006 0.1815,0.006 0.18071,-0.001 0.1813,4.7e-4 0.18071,-0.001 0.1813,4.7e-4 0.17725,-0.006 0.18071,-0.001 0.18129,4.7e-4 0.17889,-0.006 0.17906,-5.3e-4 0.17947,-0.004 0.18072,-0.001 0.18129,4.8e-4 0.17723,-0.006 0.1789,-0.006 0.1813,4.7e-4 0.18071,-0.001 0.18131,4.7e-4 0.18089,0.004 0.18129,4.7e-4 0.18071,-0.001 0.18314,0.006 0.17964,0.001 0.18256,0.004 0.1813,4.8e-4 0.18564,-0.003 0.18623,-0.001 0.18383,-0.009 0.18563,-0.003 0.18623,-10e-4 0.18383,-0.009 0.18381,-0.009 0.18441,-0.006 0.18566,-0.003 0.18621,-0.001 0.18565,-0.003 0.18807,0.004 0.18565,-0.003 0.1844,-0.006 0.18564,-0.003 0.18622,-0.001 0.1875,0.001 0.18623,-0.001 0.18746,0.001 0.18807,0.004 0.18989,0.009 0.18806,0.004 0.18807,0.004 0.18745,10e-4 0.18808,0.004 0.18808,0.004 0.18988,0.009 0.18746,10e-4 0.18989,0.009 0.18807,0.004 0.18991,0.009 0.18804,0.004 0.18989,0.009 0.18926,0.007 0.18806,0.004 0.1899,0.009 0.18987,0.009 0.19169,0.0129 0.19167,0.0129 0.19228,0.0152 0.19168,0.0129 0.1935,0.0184 0.19168,0.0129 0.19165,0.0129 0.19409,0.02 0.19172,0.0129 0.19167,0.0129 0.18991,0.009 0.19165,0.0129 0.18989,0.009 0.18989,0.009 0.18992,0.009 0.18986,0.009 0.19168,0.0129 0.19167,0.0129 0.1899,0.009 0.19166,0.0129 0.18988,0.009 0.1899,0.009 0.18989,0.009 0.18991,0.009 0.18804,0.004 0.18989,0.009 0.18747,0.001 0.18989,0.009 0.19232,0.0151 0.19166,0.0129 0.1935,0.0185 0.1892,0.022 0.18857,0.0202 0.18508,0.0159 0.18675,0.0151 0.18495,0.01 0.17162,0.01 0.15933,0.007 0.15079,-10e-4 0.13741,-0.001 0.12383,-0.009 0.11013,-0.01 0.0958,-0.0186 0.0884,-0.0187 0.0777,-0.0224 0.0607,-0.0283 0.0498,-0.032 0.0332,-0.0364 0.0233,-0.0385 0.0149,-0.0409 -7.9e-4,-0.0482 -0.009,-0.0453 -0.0243,-0.0452 -0.036,-0.0522 -0.0481,-0.0495 -0.061,-0.0486 -0.0755,-0.0582 -0.0848,-0.0528 -0.1,-0.0585 -0.11582,-0.0658 -0.12985,-0.0736 -0.14142,-0.0749 -0.15,-0.0829 -0.16339,-0.0838 -0.17236,-0.0878 -0.18235,-0.0898 -0.19574,-0.0904 -0.19392,-0.0855 -0.19392,-0.0855 -0.19988,-0.0815 -0.19705,-0.0788 -0.19706,-0.0788 -0.19805,-0.0765 -0.19522,-0.0738 -0.20122,-0.0698 -0.20016,-0.0719 -0.19938,-0.0648 -0.19774,-0.0653 -0.19938,-0.0648 -0.19772,-0.0653 -0.2025,-0.0581 -0.20251,-0.058 -0.20491,-0.0646 -0.20083,-0.0586 -0.20189,-0.0565 -0.20493,-0.0646 -0.20248,-0.058 -0.20249,-0.0581 -0.20267,-0.0636 -0.20248,-0.0581 -0.2025,-0.0581 -0.2025,-0.058 -0.20085,-0.0586 -0.20247,-0.058 -0.2025,-0.0581 -0.205,-0.0496 -0.20561,-0.0513 -0.20558,-0.0512 -0.20743,-0.0562 -0.20559,-0.0513 -0.205,-0.0496 -0.20744,-0.0562 -0.20558,-0.0513 -0.20561,-0.0512 -0.20742,-0.0562 -0.20501,-0.0496 -0.20559,-0.0513 -0.20741,-0.0562 -0.20559,-0.0512 -0.20561,-0.0513 -0.20319,-0.0446 -0.20559,-0.0513 -0.20316,-0.0446 -0.202,-0.0415 -0.20318,-0.0446 -0.202,-0.0415 -0.20132,-0.0397 -0.20141,-0.0399 -0.20141,-0.0399 -0.20199,-0.0415 -0.20135,-0.0397 -0.20139,-0.0399 -0.202,-0.0415 -0.20317,-0.0446 -0.20382,-0.0465 -0.20139,-0.0399 -0.20318,-0.0446 -0.20199,-0.0415 -0.20136,-0.0397 -0.20134,-0.0397 -0.20199,-0.0415 -0.20136,-0.0398 -0.19955,-0.0349 -0.20136,-0.0397 -0.19957,-0.0349 -0.19956,-0.0349 -0.1996,-0.0349 -0.19955,-0.0349 -0.19775,-0.0299 -0.19957,-0.0349 -0.19956,-0.0349 -0.19959,-0.0349 -0.20016,-0.0365 -0.19956,-0.0349 -0.20136,-0.0397 -0.19956,-0.0349 -0.20134,-0.0397 -0.19959,-0.0349 -0.202,-0.0415 -0.20134,-0.0397 -0.19956,-0.0349 -0.2014,-0.0399 -0.19957,-0.0349 -0.19957,-0.0349 -0.19776,-0.0299 -0.19773,-0.0299 -0.19774,-0.0299 -0.19775,-0.0299 -0.19775,-0.0299 -0.19714,-0.0283 -0.19774,-0.0299 -0.19775,-0.0299 -0.19774,-0.0299 -0.19775,-0.0299 -0.19774,-0.0299 -0.19716,-0.0283 -0.19775,-0.0299 -0.19773,-0.0299 -0.19774,-0.0299 -0.19957,-0.0349 -0.19776,-0.0299 -0.19772,-0.0299 -0.19774,-0.0299 -0.19715,-0.0283 -0.19959,-0.0349 -0.19775,-0.0299 -0.19956,-0.0349 -0.19774,-0.0299 -0.19958,-0.0349 -0.19957,-0.0349 -0.19774,-0.0299 -0.19956,-0.0349 -0.19777,-0.0299 -0.19956,-0.0349 -0.19775,-0.0299 -0.19956,-0.0349 -0.19773,-0.0299 -0.19959,-0.0349 -0.19775,-0.0299 -0.19955,-0.0349 -0.19774,-0.0299 -0.19777,-0.0299 -0.19713,-0.0283 -0.19776,-0.0299 -0.19956,-0.0349 -0.19958,-0.0349 -0.19957,-0.0349 -0.19956,-0.0349 -0.20016,-0.0365 -0.19958,-0.0349 -0.19715,-0.0283 -0.19774,-0.0299 -0.19774,-0.0299 -0.19775,-0.0299 -0.19775,-0.0299 -0.19532,-0.0233 -0.19774,-0.0299 -0.19591,-0.025 -0.19776,-0.0299 -0.19533,-0.0233 -0.19589,-0.025 -0.19593,-0.025 -0.19349,-0.0185 -0.19591,-0.025 -0.19352,-0.0183 -0.19589,-0.025 -0.19351,-0.0185 -0.19593,-0.025 -0.19348,-0.0183 -0.19591,-0.025 -0.1935,-0.0184 -0.19592,-0.0249 -0.19349,-0.0185 -0.19594,-0.0249 -0.19347,-0.0185 -0.19167,-0.0129 -0.19168,-0.0129 -0.19166,-0.0129 -0.19231,-0.0152 -0.19167,-0.0129 -0.18989,-0.009 -0.19166,-0.0129 -0.19167,-0.0129 -0.18991,-0.009 -0.19166,-0.0129 -0.18989,-0.009 -0.18988,-0.009 -0.18808,-0.004 -0.18989,-0.009 -0.18747,-10e-4 -0.18806,-0.004 -0.18564,0.003 -0.18624,0.001 -0.18566,0.003 -0.18623,10e-4 -0.1831,-0.006 -0.18255,-0.004 -0.17838,-0.0129 -0.17344,-0.0146 -0.1751,-0.0143 -0.17161,-0.01 -0.17161,-0.01 -0.17267,-0.007 -0.17163,-0.01 -0.1692,-0.003 -0.17142,-0.004 -0.17164,-0.01 -0.16919,-0.003 -0.17144,-0.004 -0.1692,-0.003 -0.16978,-0.004 -0.17083,-0.003 -0.1674,0.001 -0.16978,-0.004 -0.17084,-0.003 -0.16796,2.5e-4 -0.16737,0.001 -0.17085,-0.003 -0.16979,-0.004 -0.16737,0.001 -0.17144,-0.004 -0.17102,-0.009 -0.17161,-0.01 -0.17346,-0.0146 -0.17508,-0.0143 -0.17345,-0.0146 -0.17759,-0.006 -0.17656,-0.009 -0.1813,-4.7e-4 -0.18566,0.003 -0.18623,0.001 -0.18745,-0.001 -0.18807,-0.004 -0.18808,-0.004 -0.18746,-0.001 -0.18988,-0.009 -0.1899,-0.009 -0.18989,-0.009 -0.18989,-0.009 -0.19167,-0.0129 -0.18989,-0.009 -0.1899,-0.009 -0.18989,-0.009 -0.19167,-0.0129 -0.18989,-0.009 -0.18989,-0.009 -0.19167,-0.0129 -0.19231,-0.0151 -0.19167,-0.0129 -0.19349,-0.0185 -0.19593,-0.0249 -0.19349,-0.0185 -0.1935,-0.0185 -0.19413,-0.0202 -0.19166,-0.0129 -0.19168,-0.0129 -0.18987,-0.009 -0.18991,-0.009 -0.18806,-0.004 -0.18747,-0.001 -0.18806,-0.004 -0.18497,-0.01 -0.18495,-0.01 -0.18016,-0.0176 -0.18179,-0.017 -0.18079,-0.0194 -0.1794,-0.01 -0.17839,-0.0129 -0.18,-0.0129 -0.17839,-0.0129 -0.1782,-0.007 -0.17653,-0.009 -0.18003,-0.0129 -0.18003,-0.0129 -0.17839,-0.0129 -0.17943,-0.01 -0.18079,-0.0194 -0.18002,-0.0129 -0.17774,-0.0114 -0.18004,-0.0129 -0.17655,-0.007 -0.17818,-0.007 -0.1782,-0.007 -0.17414,-10e-4 -0.17636,-0.003 -0.17414,-0.001 -0.17576,-6.7e-4 -0.17657,-0.007 -0.18002,-0.0129 -0.17521,-0.0195 -0.17276,-0.028 -0.16719,-0.028 -0.17031,-0.0213 -0.16848,-0.0165 -0.17328,-0.009 -0.1692,-0.003 -0.1716,-0.01 -0.17327,-0.009 -0.17104,-0.009 -0.16979,-0.004 -0.17326,-0.009 -0.17101,-0.009 -0.17165,-0.01 -0.17323,-0.009 -0.17163,-0.01 -0.1692,-0.003 -0.17161,-0.01 -0.17084,-0.003 -0.16981,-0.004 -0.171,-0.009 -0.17144,-0.004 -0.17162,-0.01 -0.1692,-0.003 -0.17327,-0.009 -0.17102,-0.009 -0.17345,-0.0146 -0.17508,-0.0143 -0.17586,-0.0212 -0.17524,-0.0194 -0.17508,-0.0143 -0.17839,-0.0129 -0.18253,-0.004 -0.18807,-0.004 -0.18805,-0.004 -0.1899,-0.009 -0.18989,-0.009 -0.19166,-0.0129 -0.18989,-0.009 -0.19168,-0.0129 -0.19167,-0.0129 -0.19166,-0.0129 -0.19167,-0.0129 -0.19166,-0.0129 -0.1941,-0.02 -0.19167,-0.0129 -0.19165,-0.0129 -0.19411,-0.02 -0.19166,-0.0129 -0.19167,-0.0129 -0.19349,-0.0185 -0.19415,-0.0202 -0.19533,-0.0233 -0.19592,-0.025 -0.19532,-0.0233 -0.1959,-0.025 -0.19592,-0.025 -0.1935,-0.0183 -0.19592,-0.025 -0.1935,-0.0184 -0.19166,-0.0129 -0.19409,-0.02 -0.19166,-0.0129 -0.19351,-0.0183 -0.19165,-0.0129 -0.19411,-0.02 -0.19349,-0.0184 -0.19414,-0.0202 -0.1935,-0.0185 -0.19348,-0.0184 -0.19168,-0.0129 -0.1923,-0.0152 -0.19351,-0.0185 -0.19171,-0.0129 -0.19409,-0.02 -0.1935,-0.0184 -0.19349,-0.0184 -0.19592,-0.025 -0.19593,-0.0249 -0.19531,-0.0233 -0.19774,-0.0299 -0.19592,-0.025 -0.19532,-0.0233 -0.19592,-0.025 -0.19351,-0.0184 -0.1959,-0.025 -0.19532,-0.0233 -0.19592,-0.025 -0.19774,-0.0299 -0.19591,-0.025 -0.19714,-0.0283 -0.19958,-0.0349 -0.19774,-0.0299 -0.19958,-0.0349 -0.19773,-0.0299 -0.19957,-0.0349 -0.19958,-0.0349 -0.19774,-0.0299 -0.19957,-0.0349 -0.19774,-0.0299 -0.19957,-0.0349 -0.20134,-0.0397 -0.20199,-0.0415 -0.20137,-0.0397 -0.20317,-0.0446 -0.202,-0.0415 -0.20139,-0.0399 -0.2014,-0.0399 -0.202,-0.0415 -0.20134,-0.0398 -0.20139,-0.0399 -0.20199,-0.0415 -0.20141,-0.0399 -0.20136,-0.0397 -0.20139,-0.0399 -0.20198,-0.0415 -0.2014,-0.0399 -0.19958,-0.0349 -0.20134,-0.0397 -0.20199,-0.0415 -0.20136,-0.0397 -0.20139,-0.0399 -0.20134,-0.0397 -0.20201,-0.0415 -0.20138,-0.0399 -0.20136,-0.0398 -0.20199,-0.0415 -0.20138,-0.0399 -0.20143,-0.0399 -0.20198,-0.0415 -0.20318,-0.0446 -0.20134,-0.0397 -0.20199,-0.0415 -0.2014,-0.0399 -0.20136,-0.0397 -0.19956,-0.0349 -0.20198,-0.0415 -0.19958,-0.0349 -0.20141,-0.0399 -0.20135,-0.0397 -0.20138,-0.0399 -0.20199,-0.0415 -0.20136,-0.0397 -0.20381,-0.0465 -0.20319,-0.0446 -0.20134,-0.0397 -0.20381,-0.0465 -0.20319,-0.0446 -0.2056,-0.0513 -0.20376,-0.0463 -0.20317,-0.0446 -0.2056,-0.0513 -0.20317,-0.0446 -0.20383,-0.0465 -0.20559,-0.0513 -0.205,-0.0496 -0.20561,-0.0513 -0.20558,-0.0513 -0.2056,-0.0512 -0.20501,-0.0496 -0.20559,-0.0513 -0.20559,-0.0513 -0.20743,-0.0562 -0.2056,-0.0512 -0.20742,-0.0562 -0.20249,-0.0581 -0.20249,-0.0581 -0.20026,-0.0571 -0.20491,-0.0646 -0.202486,-0.0581 -0.20248,-0.058 -0.20086,-0.0586 -0.20431,-0.0631 -0.20432,-0.0631 -0.20431,-0.0631 -0.20432,-0.0631 -0.2051,-0.0702 -0.20614,-0.0679 -0.20673,-0.0696 -0.20615,-0.0679 -0.20691,-0.0752 -0.20616,-0.0679 -0.20673,-0.0696 -0.20792,-0.0728 -0.20691,-0.0752 -0.20794,-0.0728 -0.20855,-0.0745 -0.21037,-0.0795 -0.21036,-0.0794 -0.20871,-0.0801 -0.21218,-0.0844 -0.21219,-0.0844 -0.21036,-0.0795 -0.20871,-0.08 -0.21219,-0.0844 -0.21216,-0.0844 -0.21712,-0.0825 -0.22037,-0.0905 -0.21953,-0.0891 -0.21894,-0.0875 -0.2158,-0.0942 -0.21642,-0.096 -0.20983,-0.0982 -0.2043,-0.0985 -0.20655,-0.0995 -0.19935,-0.10024 -0.19504,-0.10366 -0.1838,-0.10481 -0.18519,-0.1074 -0.178,-0.1081 -0.17365,-0.11168 -0.16807,-0.11182 -0.16392,-0.12083 -0.15412,-0.12441 -0.14916,-0.12627 -0.14419,-0.12812 -0.13702,-0.12884 -0.12781,-0.13413 -0.12285,-0.13599 -0.11131,-0.14014 -0.10575,-0.14028 -0.0965,-0.1456 -0.09,-0.14802 -0.0819,-0.15661 -0.077,-0.15838 -0.0659,-0.16246 -0.0551,-0.16643 -0.0485,-0.16891 -0.0392,-0.17232 -0.0293,-0.17597 -0.0227,-0.17837 -0.0177,-0.18021 -0.0129,-0.18199 -0.008,-0.18381 -0.008,-0.18382 0.004,-0.18807 0.004,-0.18805 0.002,-0.18748 0.009,-0.18988 0.009,-0.1899 0.0134,-0.19167 0.0134,-0.19168 0.02,-0.19407 0.0184,-0.19351 0.0201,-0.19413 0.0184,-0.193503 0.025,-0.195906 0.0233,-0.19532 0.025,-0.195921 0.0234,-0.195333 0.02,-0.19409 0.0233,-0.195305 0.02,-0.194105 0.0233,-0.195319 0.0201,-0.194147 0.0233,-0.195306 0.02,-0.19409 0.0184,-0.193504 0.0201,-0.194147 0.0184,-0.193489 0.0134,-0.191658 0.02,-0.194092 0.0184,-0.193502 0.025,-0.195907 0.0233,-0.195333 0.0299,-0.197738 0.0299,-0.197749 0.0367,-0.194635 0.0367,-0.194633 0.0324,-0.191172 0.0317,-0.192818 0.0252,-0.190386 0.0318,-0.192803 0.0342,-0.186239 0.0403,-0.184768 0.0427,-0.178187 0.05,-0.173399 0.0529,-0.170782 0.058,-0.16702 0.0622,-0.161072 0.0672,-0.157311 0.0762,-0.153135 0.0774,-0.149919 0.0864,-0.145772 0.0866,-0.14028 0.0952,-0.132128 0.0992,-0.126124 0.1043,-0.122262 0.10781,-0.118116 0.11637,-0.109964 0.11877,-0.103383 0.12556,-0.100236 0.12914,-0.09052 0.13157,-0.08393 0.1334,-0.07893 0.13522,-0.07393 0.137,-0.06921 0.13963,-0.06207 0.13863,-0.06478 0.14767,-0.06049 0.15295,-0.05633 0.16149,-0.05333 0.16891,-0.04847 0.16791,-0.05119 0.16891,-0.04848 0.1679,-0.05105 0.1689,-0.04848 0.16792,-0.05118 0.16644,-0.05519 0.16642,-0.05519 0.16692,-0.05377 0.16644,-0.05519 0.16644,-0.05519 0.16445,-0.06049 0.16445,-0.06049 0.16446,-0.06049 0.16248,-0.06592 0.16248,-0.06593 0.16198,-0.06722 0.16249,-0.06592 0.161,-0.06992 0.16248,-0.06593 0.16446,-0.06049 0.15951,-0.05862 0.15492,-0.0509 0.15805,-0.04747 0.15408,-0.03803 0.15574,-0.0386 0.15344,-0.03975 0.15409,-0.03803 0.15408,-0.0379 0.15509,-0.04033 0.15408,-0.03803 0.15586,-0.03319 0.15934,-0.02874 0.1577,-0.02817 0.15951,-0.02317 0.16176,-0.02216 0.16134,-0.01815 0.16376,-0.01144 0.16541,-0.01286 0.16554,-0.0071 0.16556,-0.0071 0.16719,-0.0071 0.169776,0.0043 0.1692,0.0029 0.17143,0.0043 0.1692,0.0029 0.1698,0.0043 0.17083,0.0029 0.16919,0.0029 0.1698,0.0043 0.16902,-0.0029 0.16554,-0.0071 0.1687,-0.01287 0.17345,-0.02088 0.1692,-0.03245 0.17231,-0.03918 0.17232,-0.03918 0.17172,-0.04075 0.17229,-0.03918 0.17231,-0.03918 0.17054,-0.04404 0.17052,-0.04404 0.16793,-0.05118 0.16642,-0.05519 0.16693,-0.05377 0.16445,-0.06049 0.16198,-0.06722 0.16101,-0.06992 0.16001,-0.07263 0.15903,-0.07522 0.1566,-0.08179 0.1566,-0.08179 0.1566,-0.08194 0.15478,-0.08681 0.15478,-0.0868 0.15477,-0.08681 0.15478,-0.08681 0.15418,-0.08837 0.15479,-0.08681 0.15476,-0.0868 0.15477,-0.08681 0.15296,-0.09181 0.15236,-0.09337 0.15295,-0.09181 0.15294,-0.09181 0.15412,-0.08851 0.15477,-0.08681 0.15479,-0.0868 0.15477,-0.08681 0.15477,-0.08681 0.15297,-0.09181 0.15416,-0.08837 0.15478,-0.08681 0.15478,-0.0868 0.15662,-0.0818 0.15658,-0.08179 0.1566,-0.08179 0.1572,-0.08022 0.15661,-0.08179 0.15661,-0.08179 0.15837,-0.07708 0.15661,-0.08179 0.1566,-0.08179 0.15661,-0.08194 0.1566,-0.08179 0.15477,-0.08681 0.15479,-0.08681 0.15477,-0.08681 0.15479,-0.08681 0.15477,-0.0868 0.15233,-0.09337 0.15297,-0.09181 0.15476,-0.0868 0.15479,-0.08681 0.15477,-0.08681 0.15478,-0.08681 0.15419,-0.08851 0.15476,-0.08681 0.15661,-0.08179 0.1572,-0.08022 0.15661,-0.08179 0.15837,-0.07708 0.15838,-0.07708 0.15903,-0.07522 0.15838,-0.07708 0.15839,-0.07708 0.15901,-0.07522 0.15838,-0.07708 0.16002,-0.07263 0.161,-0.06993 0.16099,-0.06992 0.16001,-0.07263 0.16248,-0.06593 0.16447,-0.06049 0.16644,-0.05519 0.16888,-0.04848 0.17172,-0.04075 0.17231,-0.03918 0.17231,-0.03918 0.1723,-0.03918 0.17231,-0.03918 0.17414,-0.03418 0.17654,-0.02759 0.17599,-0.02931 0.17596,-0.02931 0.17655,-0.02759 0.17596,-0.02931 0.17596,-0.02932 0.17656,-0.02759 0.17415,-0.03418 0.17414,-0.03418 0.17411,-0.03418 0.17415,-0.03418 0.17414,-0.03418 0.17414,-0.03418 0.17472,-0.03261 0.17413,-0.03418 0.17414,-0.03418 0.17414,-0.03418 0.17413,-0.03418 0.17412,-0.03418 0.17233,-0.03918 0.16559,-0.04219 0.16299,-0.04933 0.15294,-0.0562 0.14456,-0.06392 0.14184,-0.07635 0.13156,-0.08393 0.12913,-0.09052 0.1224,-0.09366 0.12055,-0.09852 0.11884,-0.103382 0.1171,-0.102821 0.11641,-0.109963 0.11697,-0.108388 0.11639,-0.109963 0.11698,-0.108387 0.11826,-0.105103 0.12054,-0.09852 0.12298,-0.09195 0.12255,-0.08809 0.12427,-0.08866 0.1267,-0.08208 0.12669,-0.08208 0.12598,-0.08365 0.12669,-0.08208 0.12671,-0.08208 0.12439,-0.08308 0.1267,-0.08208 0.12669,-0.08208 0.12599,-0.08379 0.12654,-0.08208 0.12842,-0.07722 0.137,-0.06921 0.13956,-0.06207 0.14554,-0.06121 0.15458,-0.05692 0.15738,-0.04418 0.1656,-0.04218 0.16679,-0.03904 0.17472,-0.0326 0.1778,-0.02432 0.18021,-0.01773 0.18021,-0.01773 0.18199,-0.01287 0.18199,-0.01286 0.182,-0.01286 0.18196,-0.01287 0.18201,-0.01286 0.18021,-0.01773 0.17779,-0.0243 0.17655,-0.02759 0.17597,-0.02931 0.17595,-0.02932 0.17656,-0.02759 0.17597,-0.02932 0.17596,-0.02917 0.17655,-0.02759 0.17596,-0.02931 0.17598,-0.02931 0.17655,-0.02759 0.17778,-0.0243 0.17838,-0.02273 0.17839,-0.02274 0.17599,-0.02931 0.17594,-0.02917 0.17656,-0.02759 0.17597,-0.02932 0.17414,-0.03418 0.17414,-0.03418 0.17411,-0.03418 0.17475,-0.03261 0.17171,-0.04075 0.17231,-0.03918 0.17229,-0.03918 0.16891,-0.04847 0.16792,-0.05118 0.1689,-0.04847 0.16792,-0.05118 0.16642,-0.05519 0.16644,-0.05519 0.16693,-0.05377 0.16642,-0.05519 0.16447,-0.06049 0.16248,-0.06593 0.16198,-0.06722 0.16248,-0.06593 0.16247,-0.06592 0.15607,-0.06806 0.14687,-0.07278 0.14186,-0.07637 0.13341,-0.07893 0.12427,-0.08866 0.11095,-0.08937 0.10429,-0.09238 0.0974,-0.09552 0.0907,-0.09866 0.0882,-0.105245 0.0865,-0.104673 0.0888,-0.103669 0.0882,-0.105245 0.0882,-0.105246 0.0865,-0.104672 0.0887,-0.10367 0.0882,-0.105245 0.0882,-0.105246 0.089,-0.09808 0.0899,-0.100246 0.0907,-0.09866 0.0899,-0.10038 0.089,-0.0981 0.09,-0.100381 0.0906,-0.09866 0.0924,-0.09381 0.0927,-0.08822 0.0959,-0.08393 0.0961,-0.08393 0.0978,-0.07893 0.0969,-0.07664 0.10704,-0.06921 0.11569,-0.06134 0.12484,-0.05663 0.12899,-0.05505 0.13812,-0.0509 0.15212,-0.04834 0.15642,-0.0469 0.1656,-0.04219 0.17231,-0.03918 0.17412,-0.03418 0.17415,-0.03418 0.17412,-0.03418 0.17597,-0.02931 0.17654,-0.02759 0.17598,-0.02931 0.17595,-0.02932 0.17657,-0.02759 0.17596,-0.02931 0.17837,-0.02274 0.17779,-0.02431 0.1784,-0.02274 0.17779,-0.02431 0.1802,-0.01773 0.18022,-0.01773 0.18022,-0.01773 0.17778,-0.0243 0.18021,-0.01773 0.17838,-0.02273 0.1778,-0.02432 0.17656,-0.02759 0.17773,-0.02445 0.17656,-0.02759 0.17414,-0.03418 0.17415,-0.03418 0.1741,-0.03418 0.17414,-0.03418 0.17656,-0.02759 0.17598,-0.02931 0.17598,-0.02932 0.17653,-0.02759 0.17597,-0.02932 0.17597,-0.02931 0.17655,-0.02759 0.17414,-0.03418 0.17413,-0.03418 0.17413,-0.03418 0.17414,-0.03418 0.17414,-0.03418 0.17472,-0.03261 0.17172,-0.04075 0.17231,-0.03918 0.17229,-0.03918 0.16562,-0.04218 0.16149,-0.05333 0.15294,-0.05633 0.15262,-0.06219 0.14356,-0.06649 0.13584,-0.07237 0.12785,-0.07878 0.12655,-0.08208 0.11754,-0.08623 0.11083,-0.09481 0.10737,-0.09923 0.10892,-0.09981 0.10737,-0.09923 0.10836,-0.101383 0.10726,-0.09923 0.1055,-0.104243 0.10649,-0.106392 0.10551,-0.104241 0.10649,-0.106392 0.1055,-0.104243 0.1067,-0.100815 0.10892,-0.09981 0.10914,-0.09423 0.11255,-0.09008 0.11153,-0.08766 0.1144,-0.08508 0.11267,-0.08451 0.11341,-0.08265 0.11625,-0.08008 0.11512,-0.07793 0.11682,-0.07851 0.12183,-0.07464 0.12541,-0.07036 0.13214,-0.06735 0.1347,-0.0602 0.14056,-0.05934 0.14801,-0.05448 0.15902,-0.04476 0.15904,-0.03975 0.16677,-0.03904 0.17473,-0.03261 0.17597,-0.02932 0.17596,-0.02931 0.17654,-0.02759 0.17781,-0.0243 0.17839,-0.02274 0.17778,-0.02432 0.18023,-0.01773 0.18018,-0.01773 0.18023,-0.01773 0.18197,-0.01287 0.18021,-0.01773 0.17956,-0.01945 0.17839,-0.02273 0.17839,-0.02274 0.17778,-0.0243 0.17657,-0.02759 0.17596,-0.02932 0.17597,-0.02931 0.17415,-0.03418 0.17411,-0.03418 0.17474,-0.03261 0.17412,-0.03418 0.17598,-0.02931 0.17597,-0.02917 0.17655,-0.02759 0.17596,-0.02931 0.17656,-0.02759 0.17413,-0.03418 0.17414,-0.03418 0.17413,-0.03418 0.17414,-0.03418 0.17415,-0.03418 0.17411,-0.03418 0.17414,-0.03418 0.17231,-0.03918 0.17231,-0.03918 0.17232,-0.03918 0.17052,-0.04404 0.1699,-0.04575 0.17053,-0.04404 0.16888,-0.04847 0.16792,-0.05119 0.16891,-0.04847 0.16791,-0.05119 0.16644,-0.05519 0.16643,-0.05519 0.16692,-0.05377 0.16644,-0.05519 0.16643,-0.05519 0.16641,-0.05519 0.16696,-0.05377 0.1595,-0.05863 0.15048,-0.06293 0.14917,-0.07163 0.14013,-0.07579 0.14,-0.08137 0.13585,-0.08738 0.13656,-0.0858 0.13655,-0.0858 0.13758,-0.08794 0.13656,-0.0858 0.13585,-0.08738 0.13812,-0.08637 0.13657,-0.08579 0.13585,-0.08738 0.13999,-0.08137 0.13828,-0.08079 0.13828,-0.08079 0.14,-0.08137 0.13828,-0.08079 0.13827,-0.08079 0.13999,-0.08137 0.13771,-0.08237 0.13828,-0.08079 0.14,-0.08137 0.13827,-0.08079 0.13828,-0.08079 0.14,-0.08137 0.13828,-0.0808 0.1377,-0.08237 0.13999,-0.08137 0.13828,-0.08079 0.14508,-0.07766 0.1541,-0.0735 0.15509,-0.07078 0.16247,-0.06593 0.16444,-0.06049 0.16644,-0.05519 0.16643,-0.05519 0.16693,-0.05377 0.16644,-0.05519 0.16641,-0.05519 0.16644,-0.05519 0.16447,-0.06049 0.16445,-0.06049 0.16446,-0.06049 0.16247,-0.06592 0.16248,-0.06593 0.15508,-0.07078 0.14752,-0.07107 0.14185,-0.07635 0.13342,-0.07893 0.12183,-0.07464 0.11126,-0.07823 0.0968,-0.07678 0.0862,-0.08037 0.0731,-0.0755 0.063,-0.07722 0.0498,-0.07807 0.0376,-0.07536 0.0265,-0.07507 0.0143,-0.07807 7.9e-4,-0.07878 -0.009,-0.07522 -0.0218,-0.07593 -0.0345,-0.07693 -0.0462,-0.0745 -0.0573,-0.07422 -0.0711,-0.0765 -0.081,-0.07293 -0.0927,-0.07421 -0.10604,-0.07493 -0.11741,-0.07064 -0.12826,-0.07422 -0.14073,-0.06764 -0.14948,-0.06621 -0.16446,-0.06635 -0.17448,-0.06834 -0.18604,-0.06407 -0.19264,-0.06163 -0.19349,-0.0539 -0.20067,-0.05306 -0.20559,-0.05134 -0.20559,-0.05118 -0.205,-0.04962 -0.20382,-0.04647 -0.20319,-0.04462 -0.20383,-0.04647 -0.20137,-0.03989 -0.20135,-0.03975 -0.202,-0.04148 -0.20141,-0.03989 -0.19956,-0.03489 -0.19957,-0.03489 -0.20136,-0.03975 -0.20199,-0.04148 -0.20139,-0.03989 -0.2014,-0.03989 -0.20199,-0.04148 -0.20139,-0.03989 -0.20135,-0.03975 -0.20201,-0.04148 -0.19955,-0.03489 -0.20135,-0.03975 -0.19958,-0.03489 -0.19958,-0.03489 -0.19956,-0.03489 -0.19956,-0.03489 -0.19774,-0.02989 -0.19958,-0.03489 -0.19958,-0.03489 -0.20135,-0.03975 -0.20199,-0.04148 -0.19956,-0.03489 -0.2014,-0.03989 -0.19956,-0.03489 -0.1996,-0.03489 -0.19773,-0.02989 -0.19956,-0.03489 -0.19957,-0.03489 -0.19958,-0.03489 -0.2014,-0.03989 -0.202,-0.04148 -0.20317,-0.04461 -0.20198,-0.04147 -0.19958,-0.03489 -0.19715,-0.0283 -0.19591,-0.02503 -0.19774,-0.02989 -0.19593,-0.02503 -0.19532,-0.0233 -0.19775,-0.02989 -0.19774,-0.02989 -0.19773,-0.02989 -0.19776,-0.02989 -0.19715,-0.0283 -0.19773,-0.02989 -0.19774,-0.02989 -0.19776,-0.02989 -0.19955,-0.03489 -0.19777,-0.02989 -0.19773,-0.02989 -0.19715,-0.02832 -0.19593,-0.02503 -0.19773,-0.02989 -0.19592,-0.02488 -0.19716,-0.02831 -0.19774,-0.02989 -0.19772,-0.02989 -0.19775,-0.02989 -0.19776,-0.02989 -0.19774,-0.02989 -0.19533,-0.02331 -0.19408,-0.02001 -0.19349,-0.01844 -0.19351,-0.01844 -0.1941,-0.02001 -0.19529,-0.02331 -0.19776,-0.02989 -0.19591,-0.02503 -0.19776,-0.02989 -0.19532,-0.02331 -0.1959,-0.02503 -0.19351,-0.01844 -0.19591,-0.02488 -0.19349,-0.01844 -0.19592,-0.02488 -0.1935,-0.01844 -0.19591,-0.02488 -0.1935,-0.01844 -0.19413,-0.02017 -0.1935,-0.01844 -0.19351,-0.01844 -0.19229,-0.01516 -0.1935,-0.01844 -0.19167,-0.01287 -0.1935,-0.01844 -0.19232,-0.01516 -0.19348,-0.01844 -0.19351,-0.01844 -0.19408,-0.02001 -0.1935,-0.01844 -0.19415,-0.02017 -0.19348,-0.01844 -0.19591,-0.02503 -0.19351,-0.01844 -0.19591,-0.02503 -0.19531,-0.02331 -0.19593,-0.02488 -0.19351,-0.01844 -0.1959,-0.02488 -0.19352,-0.01845 -0.1959,-0.02503 -0.19531,-0.02331 -0.19593,-0.02503 -0.19591,-0.02503 -0.19532,-0.02331 -0.19592,-0.02488 -0.19533,-0.02331 -0.19591,-0.02503 -0.19592,-0.02503 -0.19531,-0.02331 -0.19593,-0.02488 -0.19591,-0.02503 -0.19532,-0.02331 -0.19593,-0.02503 -0.19532,-0.02331 -0.19591,-0.02503 -0.19774,-0.02989 -0.19532,-0.02331 -0.19592,-0.02503 -0.19592,-0.02488 -0.19534,-0.02331 -0.19407,-0.02001 -0.19351,-0.01844 -0.19348,-0.01845 -0.19415,-0.02016 -0.19166,-0.01287 -0.19167,-0.01287 -0.19168,-0.01287 -0.19407,-0.02001 -0.18858,-0.02016 -0.18855,-0.02017 -0.18757,-0.0226 -0.18674,-0.0153 -0.18672,-0.01516 -0.18496,-0.01003 -0.1833,-0.01143 -0.18498,-0.01003 -0.18494,-0.01003 -0.18497,-0.01003 -0.18673,-0.0153 -0.18509,-0.01587 -0.18675,-0.0153 -0.18494,-0.01003 -0.18675,-0.0153 -0.18329,-0.01144 -0.1874,-0.01702 -0.18431,-0.0086 -0.18495,-0.01003 -0.18331,-0.01144 -0.18496,-0.01003 -0.18497,-0.01003 -0.18495,-0.01003 -0.18673,-0.01516 -0.18507,-0.01587 -0.18499,-0.01003 -0.18736,-0.01702 -0.18675,-0.01516 -0.18689,-0.02073 -0.18676,-0.01516 -0.18494,-0.01003 -0.18991,-0.0086 -0.18987,-0.0086 -0.1899,-0.0086 -0.1899,-0.0086 -0.18987,-0.0086 -0.19167,-0.01287 -0.19168,-0.01287 -0.19167,-0.01287 -0.19231,-0.01516 -0.18929,-0.0071 -0.18989,-0.0086 -0.18808,-0.0043 -0.18989,-0.0086 -0.18987,-0.0086 -0.1899,-0.0086 -0.18991,-0.0086 -0.18805,-0.0043 -0.18989,-0.0086 -0.18747,-0.0014 -0.18989,-0.0086 -0.18989,-0.0086 -0.18806,-0.0043 -0.1899,-0.0086 -0.18746,-0.0014 -0.1899,-0.0086 -0.18989,-0.0086 -0.18805,-0.0043 -0.1899,-0.0086 -0.18807,-0.0043 -0.18746,-0.0014 -0.18809,-0.0043 -0.18803,-0.0043 -0.18807,-0.0043 -0.18566,0.0028 -0.18561,0.0028 -0.18808,-0.0043 -0.18625,0.0013 -0.18745,-0.0014 -0.18806,-0.0043 -0.18808,-0.0043 -0.18989,-0.0086 -0.18747,-0.0014 -0.18808,-0.0043 -0.18804,-0.0043 -0.18807,-0.0043 -0.18564,0.0028 -0.18625,0.0013 -0.18564,0.0028 -0.1838,0.0086 -0.18441,0.0057 -0.18383,0.0086 -0.18382,0.0086 -0.18622,0.0013 -0.18383,0.0086 -0.18564,0.0028 -0.18442,0.0057 -0.18379,0.0086 -0.18566,0.0028 -0.1844,0.0057 -0.18564,0.0028 -0.18626,0.0013 -0.18562,0.0028 -0.18565,0.0028 -0.18624,0.0013 -0.18563,0.0028 -0.18807,-0.0043 -0.18624,0.0013 -0.18746,-0.0014 -0.18625,0.0013 -0.18381,0.0086 -0.18623,0.0013 -0.18383,0.0086 -0.18382,0.0086 -0.18622,0.0013 -0.18383,0.0086 -0.1838,0.0086 -0.18625,0.0013 -0.18564,0.0028 -0.18623,0.0013 -0.18748,-0.0014 -0.18806,-0.0043 -0.18565,0.0028 -0.18804,-0.0043 -0.18624,0.0013 -0.18566,0.0028 -0.18623,0.0013 -0.18564,0.0028 -0.18807,-0.0043 -0.18564,0.0028 -0.18806,-0.0043 -0.18566,0.0028 -0.18805,-0.0043 -0.18807,-0.0043 -0.18564,0.0028 -0.18622,0.0013 -0.18566,0.0028 -0.18441,0.0057 -0.18382,0.0086 -0.18381,0.0086 -0.18381,0.0086 -0.18441,0.0057 -0.18382,0.0086 -0.18382,0.0086 -0.18623,0.0013 -0.18382,0.0086 -0.18565,0.0028 -0.18625,0.0013 -0.18378,0.0086 -0.18383,0.0086 -0.18624,0.0013 -0.18382,0.0086 -0.18382,0.0086 -0.1844,0.0057 -0.18199,0.01287 -0.18382,0.0086 -0.18381,0.0086 -0.18198,0.01287 -0.182,0.01287 -0.18198,0.01287 -0.18199,0.01287 -0.182,0.01287 -0.18198,0.01287 -0.18198,0.01287 -0.182,0.01287 -0.1844,0.0057 -0.18381,0.0086 -0.18383,0.0086 -0.18624,0.0013 -0.18564,0.0028 -0.1838,0.0086 -0.18442,0.0057 -0.18382,0.0086 -0.18199,0.01287 -0.18198,0.01287 -0.18022,0.01773 -0.18021,0.01773 -0.1778,0.02431 -0.18021,0.01773 -0.1802,0.01773 -0.18022,0.01773 -0.17779,0.02431 -0.18021,0.01773 -0.18021,0.01773 -0.182,0.01287 -0.18197,0.01287 -0.18199,0.01287 -0.18198,0.01287 -0.18383,0.0086 -0.18382,0.0086 -0.18262,0.01143 -0.18199,0.01287 -0.18199,0.01287 -0.182,0.01287 -0.17957,0.01945 -0.1802,0.01773 -0.17838,0.02274 -0.1778,0.02431 -0.17839,0.02273 -0.17595,0.02932 -0.17656,0.0276 -0.17779,0.02431 -0.17839,0.02274 -0.17774,0.02445 -0.17838,0.02273 -0.17838,0.02274 -0.1778,0.02432 -0.18021,0.01773 -0.18198,0.01287 -0.18199,0.01287 -0.18199,0.01287 -0.182,0.01287 -0.183806,0.0086 -0.18198,0.01287 -0.18199,0.01287 -0.18022,0.01773 -0.1802,0.01773 -0.17839,0.02274 -0.17779,0.02431 -0.17656,0.0276 -0.17595,0.02932 -0.17597,0.02917 -0.17656,0.0276 -0.17414,0.03418 -0.17596,0.02932 -0.17596,0.02932 -0.17656,0.0276 -0.17596,0.02932 -0.17839,0.02274 -0.17778,0.02431 -0.18021,0.01773 -0.1802,0.01773 -0.18022,0.01773 -0.18021,0.01773 -0.17956,0.01945 -0.18199,0.01287 -0.18199,0.01287 -0.182,0.01287 -0.1802,0.01773 -0.18021,0.01773 -0.17839,0.02274 -0.17773,0.02445 -0.1784,0.02274 -0.17595,0.02932 -0.17656,0.0276 -0.17597,0.02932 -0.17595,0.02932 -0.17839,0.02274 -0.17779,0.02432 -0.17839,0.02274 -0.17837,0.02274 -0.1778,0.02431 -0.17838,0.02274 -0.18022,0.01773 -0.17705,0.01143 -0.17048,0.0086 -0.16902,0.0029 -0.16425,-0.0043 -0.16055,-0.01141 -0.15512,-0.01573 -0.15373,-0.02187 -0.14715,-0.02432 -0.14397,-0.03103 -0.13899,-0.03275 -0.13413,-0.0404 -0.1317,-0.04862 -0.13344,-0.04791 -0.12811,-0.05377 -0.12557,-0.06206 -0.12636,-0.06936 -0.12734,-0.06692 -0.12982,-0.07365 -0.12603,-0.07879 -0.12188,-0.08766 -0.12371,-0.09266 -0.12604,-0.09366 -0.1237,-0.09266 -0.12545,-0.09209 -0.12188,-0.08765 -0.12188,-0.08766 -0.12362,-0.08709 -0.12187,-0.08765 -0.12362,-0.08709 -0.12188,-0.08765 -0.12005,-0.0828 -0.1242,-0.07378 -0.12982,-0.07365 -0.13236,-0.0652 -0.13548,-0.05848 -0.14024,-0.05105 -0.14104,-0.04333 -0.14821,-0.04248 -0.15237,-0.03346 -0.15454,-0.02903 -0.16047,-0.02488 -0.16358,-0.0183 -0.16609,-0.01003 -0.16485,-0.0071 -0.16921,-0.0028 -0.17453,0.0028 -0.17048,0.0086 -0.16971,0.01587 -0.16687,0.01845 -0.17345,0.02088 -0.17597,0.02932 -0.17412,0.03418 -0.17414,0.03418 -0.17414,0.03418 -0.17413,0.03418 -0.17474,0.03261 -0.17413,0.03418 -0.17414,0.03418 -0.17414,0.03418 -0.17413,0.03418 -0.17413,0.03418 -0.17414,0.03418 -0.17656,0.0276 -0.17412,0.03418 -0.17416,0.03418 -0.17412,0.03418 -0.17414,0.03418 -0.17414,0.03418 -0.1723,0.03918 -0.17231,0.03918 -0.17231,0.03918 -0.17054,0.04404 -0.16988,0.04576 -0.17053,0.04404 -0.17053,0.04404 -0.16792,0.05119 -0.1689,0.04847 -0.16791,0.05119 -0.1689,0.04847 -0.16792,0.05119 -0.16643,0.05519 -0.16692,0.05377 -0.16643,0.05519 -0.16644,0.05519 -0.16643,0.05519 -0.16642,0.05519 -0.16693,0.05377 -0.16644,0.05519 -0.16643,0.05519 -0.16642,0.05519 -0.16693,0.05377 -0.16644,0.05519 -0.16643,0.05519 -0.17192,0.06335 -0.16448,0.06049 -0.16444,0.06049 -0.16446,0.06049 -0.16446,0.06049 -0.16445,0.06049 -0.16446,0.06049 -0.164454,0.06049 -0.164459,0.06049 -0.164447,0.06049 -0.164459,0.06049 -0.16446,0.06049 -0.16446,0.06049 -0.164459,0.06049 -0.164444,0.06049 -0.16446,0.06049 -0.16446,0.06049 -0.164457,0.06049 -0.164447,0.06049 -0.164459,0.06049 -0.164459,0.06049 -0.16446,0.06049 -0.164459,0.06049 -0.164445,0.06049 -0.16446,0.06049 -0.16446,0.06049 -0.164459,0.06049 -0.164446,0.06049 -0.164458,0.06049 -0.16446,0.06049 -0.164445,0.06049 -0.164472,0.06049 -0.164448,0.06049 -0.164458,0.06049 -0.16446,0.06049 -0.164446,0.06049 -0.164459,0.06049 -0.164459,0.06049 -0.164459,0.06049 -0.164445,0.06049 -0.164459,0.06049 -0.16446,0.06049 -0.164459,0.06049 -0.16446,0.06049 -0.164446,0.06049 -0.16446,0.06049 -0.164457,0.06049 -0.164459,0.06049 -0.164448,0.06049 -0.164457,0.06049 -0.16446,0.06049 -0.164459,0.06049 -0.16446,0.06049 -0.164446,0.06049 -0.16446,0.06049 -0.164459,0.06049 -0.164458,0.06049 -0.164446,0.06049 -0.16446,0.06049 -0.164458,0.06049 -0.164446,0.06049 -0.164473,0.06049 -0.164445,0.06049 -0.162484,0.06592 -0.162484,0.06593 -0.161976,0.06722 -0.162484,0.06593 -0.162484,0.06592 -0.162483,0.06593 -0.161978,0.06722 -0.162483,0.06593 -0.162483,0.06592 -0.162485,0.06593 -0.162483,0.06592 -0.161976,0.06722 -0.162485,0.06592 -0.162482,0.06593 -0.162484,0.06592 -0.161978,0.06722 -0.162483,0.06593 -0.162484,0.06592 -0.160015,0.07263 -0.161002,0.06993 -0.160988,0.06992 -0.160014,0.07263 -0.161002,0.06993 -0.158385,0.07708 -0.158371,0.07708 -0.159026,0.07522 -0.156607,0.0818 -0.156593,0.08179 -0.156606,0.08179 -0.15478,0.0868 -0.154779,0.08681 -0.156606,0.0818 -0.156593,0.08179 -0.156606,0.08194 -0.156607,0.08179 -0.154779,0.08681 -0.154767,0.08681 -0.15478,0.08681 -0.154779,0.08681 -0.154186,0.08851 -0.154778,0.08681 -0.154767,0.08681 -0.154779,0.08681 -0.154779,0.08681 -0.15478,0.08681 -0.154766,0.0868 -0.154778,0.08681 -0.154187,0.08851 -0.154778,0.08681 -0.156608,0.08179 -0.156592,0.08179 -0.154779,0.08681 -0.15478,0.08681 -0.154765,0.0868 -0.154781,0.08681 -0.154778,0.08681 -0.152358,0.09337 -0.152939,0.09181 -0.152954,0.09181 -0.15053,0.09838 -0.152951,0.09181 -0.150534,0.09838 -0.15116,0.09667 -0.150532,0.09838 -0.148704,0.103383 -0.148705,0.103382 -0.149332,0.101528 -0.148705,0.103383 -0.146926,0.108111 -0.146927,0.108101 -0.145099,0.11311 -0.144493,0.114684 -0.143273,0.118117 -0.140851,0.124693 -0.140852,0.124694 -0.139009,0.129554 -0.137247,0.134416 -0.137248,0.134419 -0.135405,0.139422 -0.133015,0.146015 -0.131157,0.150961 -0.129342,0.155938 -0.12934,0.155939 -0.127553,0.160772 -0.125095,0.167478 -0.125737,0.165733 -0.123321,0.172312 -0.118387,0.170496 -0.118973,0.168879 -0.114913,0.174856 -0.11161,0.173642 -0.10756,0.179619 -0.10486,0.176802 -0.101383,0.181148 -0.09403,0.18591 -0.09466,0.184168 -0.08729,0.188984 -0.08242,0.187183 -0.07403,0.1897 -0.07564,0.190286 -0.06664,0.194461 -0.06227,0.190974 -0.0549,0.195734 -0.04891,0.191659 -0.04349,0.19153 -0.03731,0.192989 -0.03671,0.194649 -0.03174,0.192801 -0.02497,0.195907 -0.01837,0.193518 -0.01344,0.191644 -0.0086,0.1899 -0.0036,0.18807 -0.0036,0.188056 -0.0036,0.188055 -0.002,0.187484 -0.0054,0.183121 -0.0079,0.17656 -0.01401,0.175085 -0.01828,0.163575 -0.02088,0.151534 -0.03272,0.144599 -0.03522,0.132415 -0.0438,0.124407 -0.04249,0.112681 -0.05344,0.103669 -0.05033,0.09138 -0.05458,0.07979 -0.05831,0.07007 -0.06902,0.06092 -0.0661,0.04862 -0.07445,0.04119 -0.08548,0.03146 -0.09489,0.02116 -0.103275,0.0143 -0.111882,0.0057 -0.116141,-0.0057 -0.121348,-0.01501 -0.128813,-0.02545 -0.138991,-0.03274 -0.148213,-0.04248 -0.151868,-0.05248 -0.160437,-0.06034 -0.16965,-0.07021 -0.174915,-0.07806 -0.172558,-0.09338 -0.176794,-0.104815 -0.178092,-0.106318 -0.182036,-0.114111 -0.175666,-0.12212 -0.177277,-0.121547 -0.177272,-0.121547 -0.177276,-0.121549 -0.177278,-0.121546 -0.172305,-0.123264 -0.175466,-0.116543 -0.175459,-0.116543 -0.17982,-0.11311 -0.186997,-0.112253 -0.190225,-0.111109 -0.191966,-0.110536 -0.19443,-0.102107 -0.195033,-0.103669 -0.194432,-0.102107 -0.193394,-0.104387 -0.194436,-0.102107 -0.195032,-0.10367 -0.199357,-0.100235 -0.199975,-0.101963 -0.199971,-0.101962 -0.201007,-0.09967 -0.199977,-0.101962 -0.204288,-0.09838 -0.204902,-0.100102 -0.205945,-0.09782 -0.204895,-0.100102 -0.209234,-0.09667 -0.209672,-0.09281 -0.209053,-0.09109 -0.207416,-0.09167 -0.212176,-0.08437 -0.212782,-0.08608 -0.210539,-0.08494 -0.210362,-0.07936 -0.209753,-0.07778 -0.213501,-0.07278 -0.213502,-0.07278 -0.212846,-0.07093 -0.211673,-0.06779 -0.211083,-0.06621 -0.209252,-0.06121 -0.209834,-0.06277 -0.209253,-0.0612 -0.209255,-0.0612 -0.207427,-0.0562 -0.207426,-0.0562 -0.205586,-0.05134 -0.205007,-0.04962 -0.203821,-0.04648 -0.203181,-0.04462 -0.201979,-0.04148 -0.201352,-0.03975 -0.199575,-0.03489 -0.199573,-0.03489 -0.197746,-0.02989 -0.197735,-0.02989 -0.195326,-0.0233 -0.195919,-0.02488 -0.195918,-0.02503 -0.193488,-0.01845 -0.191671,-0.01287 -0.191672,-0.01286 -0.1923,-0.01516 -0.189266,-0.0071 -0.18988,-0.0086 -0.189895,-0.0086 -0.189893,-0.0086 -0.191658,-0.01286 -0.189895,-0.0086 -0.192314,-0.01516 -0.18925,-0.0071 -0.189883,-0.0086 -0.189893,-0.0086 -0.189895,-0.0086 -0.188066,-0.0043 -0.189895,-0.0086 -0.188051,-0.0043 -0.187475,-0.0014 -0.18624,0.0013 -0.185646,0.0029 -0.184397,0.0057 -0.18382,0.0086 -0.181992,0.01287 -0.181992,0.01287 -0.180213,0.01773 -0.18198,0.01286 -0.180214,0.01773 -0.179571,0.01945 -0.178387,0.02274 -0.17778,0.0243 -0.178387,0.02274 -0.178387,0.02274 -0.17773,0.02445 -0.176574,0.02759 -0.175953,0.02932 -0.175967,0.02932 -0.174139,0.03418 -0.174718,0.03261 -0.17172,0.04075 -0.170533,0.04404 -0.168904,0.04847 -0.167903,0.05118 -0.167916,0.05105 -0.166929,0.05377 -0.166434,0.05519 -0.166436,0.05519 -0.164459,0.06049 -0.164445,0.06049 -0.164473,0.06049 -0.162471,0.06592 -0.162483,0.06593 -0.16199,0.06722 -0.162471,0.06593 z"
       fill="#000000"
       id="path1"
       style="stroke-width:0.17524" /></g></svg>
